<?xml version="1.0" encoding="utf-8"?>
<!-- Generator: Adobe Illustrator 27.5.0, SVG Export Plug-In . SVG Version: 6.00 Build 0)  -->
<svg version="1.1" xmlns="http://www.w3.org/2000/svg" xmlns:xlink="http://www.w3.org/1999/xlink" x="0px" y="0px"
	 viewBox="0 0 500 500" style="enable-background:new 0 0 500 500;" xml:space="preserve">
<g id="BACKGROUND">
	<rect style="fill:#F8FDFF;" width="500" height="500"/>
</g>
<g id="OBJECTS">
	<g>
		
			<ellipse transform="matrix(0.7071 -0.7071 0.7071 0.7071 -103.4218 250.3176)" style="fill:#D0E7F7;" cx="250.449" cy="250" rx="210.637" ry="210.637"/>
		<g>
			<g>
				<g>
					<defs>
						
							<ellipse id="SVGID_1_" transform="matrix(0.7071 -0.7071 0.7071 0.7071 -103.4218 250.3176)" cx="250.449" cy="250" rx="210.637" ry="210.637"/>
					</defs>
					<clipPath id="SVGID_00000178173871427296030450000002655843040920914064_">
						<use xlink:href="#SVGID_1_"  style="overflow:visible;"/>
					</clipPath>
					<g style="clip-path:url(#SVGID_00000178173871427296030450000002655843040920914064_);">
						<g>
							<g>
								<path style="fill:#F0F9FC;" d="M143.247,142.389v105.554c0,5.43-2.958,9.837-6.607,9.837H24.948
									c-3.649,0-6.607-4.407-6.607-9.837V142.389c0-0.075,0-0.15,0.005-0.218c0.074-5.332,3.004-9.619,6.602-9.619h111.693
									c3.598,0,6.529,4.287,6.602,9.619C143.247,142.238,143.247,142.314,143.247,142.389z"/>
								<path style="fill:#8FBFEF;" d="M143.243,142.171H18.346c0.074-5.332,3.004-9.619,6.602-9.619h111.693
									C140.238,132.552,143.169,136.839,143.243,142.171z"/>
								<g>
									<path style="fill:#FFFFFF;" d="M110.88,137.361c0,1.036-0.91,1.876-2.032,1.876c-1.122,0-2.032-0.84-2.032-1.876
										c0-1.036,0.91-1.876,2.032-1.876C109.97,135.485,110.88,136.325,110.88,137.361z"/>
									<path style="fill:#FFFFFF;" d="M119.365,137.361c0,1.036-0.91,1.876-2.032,1.876c-1.122,0-2.032-0.84-2.032-1.876
										c0-1.036,0.91-1.876,2.032-1.876C118.455,135.485,119.365,136.325,119.365,137.361z"/>
									<path style="fill:#FFFFFF;" d="M127.85,137.361c0,1.036-0.91,1.876-2.032,1.876s-2.032-0.84-2.032-1.876
										c0-1.036,0.91-1.876,2.032-1.876S127.85,136.325,127.85,137.361z"/>
								</g>
							</g>
							<g>
								<g>
									<circle style="fill:#A8C6E5;" cx="88.514" cy="200.409" r="36.331"/>
									<path style="fill:#C3E2F4;" d="M88.514,200.409l18.391-38.507c11.506,5.429,19.347,14.653,23.353,27.848L88.514,200.409z"
										/>
								</g>
								<polyline style="fill:none;stroke:#7485B5;stroke-miterlimit:10;" points="119.543,177.739 127.85,172.643 127.85,154.371 
																	"/>
								<polyline style="fill:none;stroke:#7485B5;stroke-miterlimit:10;" points="86.306,227.377 86.306,238.391 69.761,245.409 
																	"/>
								<rect x="82.433" y="152.809" style="fill:#C3E2F4;" width="41.352" height="3.126"/>
								<rect x="75.98" y="243.846" style="fill:#C3E2F4;" width="41.352" height="3.126"/>
							</g>
						</g>
						<g>
							<path style="fill:#F0F9FC;" d="M502.044,71.701v110.02c0,5.66-5.46,10.253-12.193,10.253H283.725
								c-6.733,0-12.193-4.594-12.193-10.253V71.701c0-0.078,0-0.157,0.008-0.227c0.136-5.558,5.545-10.026,12.185-10.026h206.125
								c6.64,0,12.049,4.468,12.184,10.026C502.044,71.544,502.044,71.622,502.044,71.701z"/>
							<g>
								<g>
									<rect x="299.702" y="140.173" style="fill:#A8C6E5;" width="5.266" height="37.369"/>
									<polygon style="fill:#A8C6E5;" points="438.856,84.74 438.856,177.542 292.096,177.542 292.096,178.223 438.856,178.223 
										439.595,178.223 439.595,84.74 									"/>
									<rect x="417.612" y="95.349" style="fill:#A8C6E5;" width="5.266" height="82.192"/>
									<rect x="394.03" y="106.603" style="fill:#A8C6E5;" width="5.266" height="70.939"/>
									<rect x="370.448" y="129.181" style="fill:#A8C6E5;" width="5.266" height="48.361"/>
									<rect x="346.866" y="116.833" style="fill:#A8C6E5;" width="5.266" height="60.708"/>
									<rect x="323.284" y="129.181" style="fill:#A8C6E5;" width="5.266" height="48.361"/>
									<g>
										<polygon style="fill:#A8C6E5;" points="302.8,129.837 301.87,128.525 349.525,99.724 373.057,115.48 419.716,81.155 
											420.774,82.382 373.105,117.449 349.475,101.628 										"/>
									</g>
									<polygon style="fill:#A8C6E5;" points="415.424,80.3 420.498,86.251 423.796,79.082 									"/>
								</g>
							</g>
							<g>
								<path style="fill:#8FBFEF;" d="M502.035,71.473H271.541c0.136-5.558,5.545-10.026,12.185-10.026h206.125
									C496.491,61.447,501.899,65.915,502.035,71.473z"/>
								<g>
									<path style="fill:#FFFFFF;" d="M287.187,66.46c0,1.08-0.948,1.955-2.118,1.955c-1.17,0-2.118-0.875-2.118-1.955
										c0-1.08,0.948-1.955,2.118-1.955C286.239,64.505,287.187,65.38,287.187,66.46z"/>
									<path style="fill:#FFFFFF;" d="M296.031,66.46c0,1.08-0.948,1.955-2.118,1.955c-1.17,0-2.118-0.875-2.118-1.955
										c0-1.08,0.948-1.955,2.118-1.955C295.082,64.505,296.031,65.38,296.031,66.46z"/>
									<path style="fill:#FFFFFF;" d="M304.875,66.46c0,1.08-0.948,1.955-2.118,1.955c-1.17,0-2.118-0.875-2.118-1.955
										c0-1.08,0.948-1.955,2.118-1.955C303.926,64.505,304.875,65.38,304.875,66.46z"/>
								</g>
							</g>
						</g>
					</g>
				</g>
				<g>
					<g>
						<g>
							<path style="fill:#F8FDFF;" d="M126.819,107.006c2.741-2.104,4.916-29.423,57.678-40.033l24.487,20.275
								c0,0-42.175,8.283-51.488,28.799L126.819,107.006z"/>
							<path style="fill:#DDE6ED;" d="M180.362,70.754l18.713,16.274c0,0-15.124,4.681-16.662,6.219l-17.944-15.317
								C164.469,77.931,168.314,73.638,180.362,70.754z"/>
							<path style="fill:#DDE6ED;" d="M160.111,79.918c0,0-21.02,8.159-27.172,25.996l10.766,3.02c0,0,9.173-16.712,24.196-20.557
								L160.111,79.918z"/>
						</g>
						<path style="fill:#F8FDFF;" d="M165.312,112.292c0,0,6.842-13.623,33.762-19.044
							C199.074,93.247,177.628,98.914,165.312,112.292z"/>
					</g>
					<g>
						<g>
							<path style="fill:#F8FDFF;" d="M367.995,217.091l45.753-9.235c0,0,8.164,57.482-49.253,62.198
								C364.495,270.054,376.71,234.883,367.995,217.091z"/>
							<path style="fill:#DDE6ED;" d="M374.01,220.624c0,0,2.541,8.175,1.746,13.813l26.266-5.638c0,0,1.973-10.43,0-13.531
								L374.01,220.624z"/>
							<path style="fill:#DDE6ED;" d="M403.22,233.027l-15.526,4.51c0,0,0.234,20.296-5.686,24.524
								C382.009,262.062,402.109,252.345,403.22,233.027z"/>
						</g>
						<path style="fill:#F8FDFF;" d="M416.625,220.863c0,0,4.072,32.504-27.304,45.637
							C389.322,266.5,423.088,261.991,416.625,220.863z"/>
					</g>
					<g>
						<g>
							<path style="fill:#F8FDFF;" d="M65.748,280.496c0,0,24.915,8.588,42.391,6.807c0,0,1.648,37.206,11.001,50.16
								c0,0-36.122,7.044-47.923,5.182C71.217,342.645,62.295,301.373,65.748,280.496z"/>
							<path style="fill:#DDE6ED;" d="M104.287,299.858c-0.565,0-26.187,0.852-35.607-2.588v4.661c0,0,15.637,3.565,36.549,2.159
								L104.287,299.858z"/>
							<path style="fill:#DDE6ED;" d="M69.623,306.075c0,0,9.796,1.884,23.738,2.072c0,0,2.541,24.848,5.464,28.567l-24.868,2.329
								C73.956,339.044,69.058,317.567,69.623,306.075z"/>
							<path style="fill:#DDE6ED;" d="M97.693,320.582c0,0,3.768,0,11.115,0c0,0,1.646,10.66,5.087,13.941
								c0,0-9.043,1.574-12.057,1.883C101.838,336.406,97.317,326.234,97.693,320.582z"/>
						</g>
						<path style="fill:#F8FDFF;" d="M62.845,294.041c0,0-0.287,27.644,5.835,43.612C68.681,337.653,59.015,320.716,62.845,294.041z
							"/>
					</g>
				</g>
			</g>
			<g>
				<path style="fill:#181021;" d="M363.217,310.834c0,0-7.612,17.31-38.523,24.613c-29.829,7.032-70.658,0.49-73.478,0.026
					c-2.821,0.464-43.649,7.007-73.478-0.026c-30.911-7.303-38.523-24.613-38.523-24.613l14.95-35.312l52.501,4.118l5.113-6.015
					l39.438,5.397l39.438-5.397l5.113,6.015l52.824-4.156L363.217,310.834z"/>
				<path style="fill:none;stroke:#AE3838;stroke-width:0.75;stroke-linecap:round;stroke-miterlimit:10;" d="M257.366,342.64
					c0,0,10.086-1.28,15.196-2.958"/>
				<g>
					<g>
						<path style="fill:#0E203D;" d="M179.679,354.117c11.22-1.706,18.536-2.559,27.802-3.901
							c9.267-1.341,22.922-3.051,22.313-14.632c-0.609-11.585-17.436-11.34-21.336-10.975c-3.904,0.368-24.754,1.221-34.63-0.121
							c-2.418-0.329-4.229-0.531-5.797-0.609c0,0-0.003,0-0.006,0c-4.847-0.235-7.416,0.748-18.464,3.048
							c-14.629,3.048-14.508,10.12-14.508,10.12s-0.356,4.633,5.408,8.341c0.003,0.003,0.003,0.003,0.006,0.006
							c0.977,0.624,2.128,1.227,3.488,1.772C153.342,350.946,168.462,355.823,179.679,354.117z"/>
						<g>
							<path style="fill:#F8947C;" d="M226.746,335.583c0,0,1.707,4.024-8.047,7.438c-9.755,3.414-17.985,6.28-22.984,3.841
								c-4.999-2.438-6.953-10.995-4.329-16.339c2.625-5.344,12.153-3.963,16.624-2.743c4.471,1.219,13.575,1.382,16.664,3.82
								C227.762,334.039,226.746,335.583,226.746,335.583z"/>
							<path style="fill:#375A72;" d="M140.461,345.387c-5.553-4.944-4.702-10.677,1.543-13.827
								c6.18-3.114,25.58-7.578,26.021-7.681c-4.847-0.235-7.416,0.748-18.464,3.048c-14.629,3.048-14.508,10.12-14.508,10.12
								S134.698,341.679,140.461,345.387z"/>
							<g>
								<path style="fill:#B2C9D8;" d="M185.045,342.649c-0.251,0-0.497-0.121-0.644-0.347c-0.136-0.206-3.285-5.102-0.255-9.977
									c0.225-0.362,0.701-0.471,1.063-0.248c0.362,0.225,0.473,0.701,0.248,1.063c-2.503,4.025,0.12,8.142,0.234,8.315
									c0.232,0.357,0.132,0.835-0.224,1.068C185.337,342.608,185.19,342.649,185.045,342.649z"/>
							</g>
							<g>
								<path style="fill:#B2C9D8;" d="M181.792,343.024c-0.251,0-0.497-0.121-0.644-0.346c-0.136-0.207-3.285-5.103-0.255-9.977
									c0.225-0.363,0.7-0.472,1.063-0.248c0.362,0.225,0.472,0.701,0.248,1.063c-2.502,4.024,0.121,8.142,0.234,8.315
									c0.232,0.356,0.133,0.835-0.224,1.068C182.084,342.983,181.937,343.024,181.792,343.024z"/>
							</g>
							<g>
								<path style="fill:#B2C9D8;" d="M178.54,343.024c-0.251,0-0.496-0.121-0.644-0.346c-0.136-0.207-3.285-5.103-0.255-9.977
									c0.225-0.363,0.7-0.472,1.063-0.248c0.362,0.225,0.473,0.701,0.248,1.063c-2.502,4.024,0.121,8.142,0.234,8.315
									c0.232,0.356,0.132,0.835-0.224,1.068C178.831,342.983,178.684,343.024,178.54,343.024z"/>
							</g>
							<g>
								<path style="fill:#B2C9D8;" d="M175.287,343.273c-0.251,0-0.497-0.122-0.646-0.347c-0.135-0.206-3.283-5.102-0.254-9.977
									c0.225-0.362,0.7-0.471,1.063-0.248c0.362,0.225,0.472,0.701,0.248,1.063c-2.515,4.045,0.205,8.271,0.233,8.313
									c0.234,0.356,0.135,0.835-0.221,1.069C175.579,343.232,175.432,343.273,175.287,343.273z"/>
							</g>
							<path style="fill:#F8947C;" d="M220.276,345.731c-5.873,0.378-10.656,0.582-13.491,0.669
								c-1.803,0.058-2.806,0.087-2.806,0.087s-5.568-3.969-6.556-18.419c0,0,3.896-1.352,10.002-3.46
								c1.323-0.451,2.733-0.931,4.245-1.454l5.713,0.698c0,0,4.797,10.758,5.582,14.072
								C223.402,339.771,221.817,343.1,220.276,345.731z"/>
							<path style="fill:#EA7B65;" d="M220.276,345.731l-13.491,0.669l0.64-21.792c1.323-0.451,2.733-0.931,4.245-1.454l5.713,0.698
								c0,0,4.797,10.758,5.582,14.072C223.402,339.771,221.817,343.1,220.276,345.731z"/>
						</g>
					</g>
					<path style="fill:#21172D;" d="M342.879,324.329c-9.071,4.347-24.801,8.301-42.072,11.674
						c-37.201,7.269-81.512,11.863-81.512,11.863l-5.495-27.563l45.066-15.352l81.25-27.665c0,0,19.044-8.49,25.455,10.86
						C371.983,307.495,360.353,315.97,342.879,324.329z"/>
				</g>
				<g>
					<g>
						<path style="fill:#0E203D;" d="M315.98,354.117c-11.22-1.706-18.536-2.559-27.802-3.901
							c-9.266-1.341-22.922-3.051-22.313-14.632c0.609-11.585,17.436-11.34,21.336-10.975c3.904,0.368,24.755,1.221,34.63-0.121
							c2.418-0.329,4.229-0.531,5.797-0.609c0,0,0.003,0,0.006,0c4.847-0.235,7.416,0.748,18.464,3.048
							c14.629,3.048,14.508,10.12,14.508,10.12s0.356,4.633-5.408,8.341c-0.003,0.003-0.003,0.003-0.006,0.006
							c-0.977,0.624-2.128,1.227-3.488,1.772C342.317,350.946,327.196,355.823,315.98,354.117z"/>
						<g>
							<path style="fill:#F8947C;" d="M268.913,335.583c0,0-1.707,4.024,8.047,7.438c9.755,3.414,17.985,6.28,22.984,3.841
								c4.999-2.438,6.953-10.995,4.329-16.339c-2.625-5.344-12.152-3.963-16.623-2.743c-4.471,1.219-13.575,1.382-16.664,3.82
								C267.897,334.039,268.913,335.583,268.913,335.583z"/>
							<path style="fill:#375A72;" d="M355.197,345.387c5.553-4.944,4.703-10.677-1.543-13.827
								c-6.18-3.114-25.58-7.578-26.021-7.681c4.847-0.235,7.416,0.748,18.464,3.048c14.629,3.048,14.508,10.12,14.508,10.12
								S360.961,341.679,355.197,345.387z"/>
							<g>
								<path style="fill:#B2C9D8;" d="M310.614,342.649c0.251,0,0.497-0.121,0.644-0.347c0.136-0.206,3.285-5.102,0.255-9.977
									c-0.225-0.362-0.701-0.471-1.063-0.248c-0.362,0.225-0.473,0.701-0.248,1.063c2.503,4.025-0.12,8.142-0.234,8.315
									c-0.232,0.357-0.133,0.835,0.224,1.068C310.322,342.608,310.469,342.649,310.614,342.649z"/>
							</g>
							<g>
								<path style="fill:#B2C9D8;" d="M313.866,343.024c0.251,0,0.497-0.121,0.644-0.346c0.136-0.207,3.285-5.103,0.255-9.977
									c-0.225-0.363-0.7-0.472-1.063-0.248c-0.362,0.225-0.472,0.701-0.248,1.063c2.502,4.024-0.121,8.142-0.234,8.315
									c-0.232,0.356-0.133,0.835,0.224,1.068C313.575,342.983,313.722,343.024,313.866,343.024z"/>
							</g>
							<g>
								<path style="fill:#B2C9D8;" d="M317.119,343.024c0.251,0,0.496-0.121,0.644-0.346c0.135-0.207,3.285-5.103,0.255-9.977
									c-0.225-0.363-0.7-0.472-1.063-0.248c-0.362,0.225-0.473,0.701-0.248,1.063c2.502,4.024-0.121,8.142-0.234,8.315
									c-0.232,0.356-0.133,0.835,0.224,1.068C316.827,342.983,316.974,343.024,317.119,343.024z"/>
							</g>
							<g>
								<path style="fill:#B2C9D8;" d="M320.371,343.273c0.251,0,0.497-0.122,0.646-0.347c0.135-0.206,3.284-5.102,0.254-9.977
									c-0.225-0.362-0.7-0.471-1.063-0.248c-0.362,0.225-0.473,0.701-0.248,1.063c2.515,4.045-0.205,8.271-0.233,8.313
									c-0.233,0.356-0.135,0.835,0.221,1.069C320.079,343.232,320.226,343.273,320.371,343.273z"/>
							</g>
							<path style="fill:#F8947C;" d="M275.383,345.731c5.873,0.378,10.656,0.582,13.491,0.669c1.803,0.058,2.806,0.087,2.806,0.087
								s5.568-3.969,6.556-18.419c0,0-3.896-1.352-10.002-3.46c-1.323-0.451-2.733-0.931-4.245-1.454l-5.713,0.698
								c0,0-4.797,10.758-5.582,14.072C272.257,339.771,273.842,343.1,275.383,345.731z"/>
							<path style="fill:#EA7B65;" d="M275.383,345.731l13.491,0.669l-0.64-21.792c-1.323-0.451-2.733-0.931-4.245-1.454
								l-5.713,0.698c0,0-4.797,10.758-5.582,14.072C272.257,339.771,273.842,343.1,275.383,345.731z"/>
						</g>
					</g>
					<path style="fill:#291D38;" d="M281.609,347.772l5.487-27.573l-126.312-43.006c0,0-19.046-8.497-25.459,10.851
						c-6.412,19.349,5.222,27.833,22.689,36.189C186.642,337.929,281.609,347.772,281.609,347.772z"/>
				</g>
				<path style="fill:#F8947C;" d="M269.4,174.378l-18.136,17.769l-18.149-17.769c2.139-3.101,3.544-6.594,4.455-9.948
					c2.038-7.492,1.633-14.276,1.633-14.276h24.11c0,0-0.228,3.847,0.544,8.948C264.54,163.797,266.072,169.568,269.4,174.378z"/>
				<path style="fill:#EA7B65;" d="M263.857,159.102c-4.974,2.493-13.871,5.683-26.287,5.328c2.038-7.492,1.633-14.276,1.633-14.276
					h24.11C263.313,150.154,263.085,154.001,263.857,159.102z"/>
				<g>
					<path style="fill:#EA7B65;" d="M288.639,127.535c1.639,3.278-0.74,7.789-5.315,10.076c-4.574,2.288-9.611,1.485-11.25-1.793
						c-1.639-3.278,0.74-7.789,5.315-10.076C281.963,123.455,287,124.257,288.639,127.535z"/>
					<path style="fill:#EA7B65;" d="M213.789,128.033c-1.595,3.299,0.844,7.779,5.448,10.005c4.604,2.227,9.63,1.357,11.225-1.942
						c1.595-3.299-0.844-7.779-5.448-10.005C220.41,123.864,215.384,124.734,213.789,128.033z"/>
				</g>
				<path style="fill:#F8947C;" d="M279.741,125.098c0.117,17.6-12.279,31.95-27.688,32.053
					c-15.409,0.102-27.994-14.082-28.112-31.682c-0.117-17.6,12.279-31.95,27.688-32.053
					C267.038,93.314,279.624,107.498,279.741,125.098z"/>
				<path style="fill:none;stroke:#CC4646;stroke-width:2;stroke-linecap:round;stroke-linejoin:round;stroke-miterlimit:10;" d="
					M251.027,128.52c0,0-2.316,4.601,0.208,8.982"/>
				<path style="fill:none;stroke:#CC4646;stroke-width:2;stroke-linecap:round;stroke-linejoin:round;stroke-miterlimit:10;" d="
					M253.31,144.022c0,0,7.935,0.512,10.921-5.717"/>
				<path style="fill:none;stroke:#153659;stroke-width:2;stroke-linecap:round;stroke-miterlimit:10;" d="M258.771,118.565
					c0,0,6.788-3.699,11.584,2.137"/>
				<path style="fill:none;stroke:#153659;stroke-width:2;stroke-linecap:round;stroke-miterlimit:10;" d="M232.647,120.557
					c0,0,5.162-5.755,11.632-1.858"/>
				<path style="fill:#153659;" d="M278.932,133.017c0,0-1.493-13.947-7.885-24.578l4.86-19.364c0,0,4.088-0.342,7.505,3.923
					C286.829,97.264,288.652,115.754,278.932,133.017z"/>
				<path style="fill:#EA7B65;" d="M228.551,114.713c0,0,6.143-1.984,8.447-3.072c0,0-0.768,1.536,0,2.112
					c0.768,0.576,6.143,3.52,18.813,0.96c12.67-2.56,14.206-3.072,14.206-3.072s4.583,3.347,5.839,7.667
					c1.256,4.321,11.183-7.795-0.72-14.578c-11.902-6.783-26.492-8.703-27.516-8.703c-1.024,0-23.165,8.959-23.165,8.959
					L228.551,114.713z"/>
				<path style="fill:#0E203D;" d="M224.763,133.017c0,0,1.493-13.947,7.885-24.578l-4.86-19.364c0,0-4.088-0.342-7.505,3.923
					C216.865,97.264,215.043,115.754,224.763,133.017z"/>
				<path style="fill:#0E203D;" d="M278.932,133.017c0,0-1.493-13.947-7.885-24.578c0,0-13.656,4.607-24.072,4.265
					c-10.403-0.342-5.797-5.202-5.797-5.202s-9.809,4.695-16.807,4.949c-1.848,0.063-3.721-0.468-5.29-1.417v-0.013
					c-3.885-2.329-5.885-7.163-0.785-11.543c0,0-4.569-8.631,1.633-15.01c5.974-6.151,15.364-2.62,15.364-2.62
					s4.518-6.936,15.352-6.936c13.82,0,19.921,4.531,24.439,12.618c0.076,0.139,0.152,0.279,0.228,0.405
					c0.076,0.139,0.152,0.278,0.228,0.43c0.063,0.127,0.139,0.253,0.202,0.392c0.051,0.089,0.089,0.164,0.114,0.228
					c0.013,0.025,0.025,0.051,0.038,0.063c0.013,0.013,0.013,0.025,0.013,0.025s4.088-0.342,7.505,3.923
					C286.829,97.264,288.652,115.754,278.932,133.017z"/>
				<path style="fill:#264960;" d="M275.742,88.759c0.051,0.089,0.089,0.164,0.114,0.228c-0.62-0.949-6.72-9.948-19.123-10.745
					c-13.112-0.861-20.123,7.999-20.123,7.999s-9.657-4.291-14.39,0.443c-4.733,4.733-0.582,12.858-0.582,12.858
					c-6.67,4.708-2.835,11.049-2.556,11.479c-3.885-2.329-5.885-7.163-0.785-11.543c0,0-4.569-8.631,1.633-15.01
					c5.974-6.151,15.364-2.62,15.364-2.62s4.518-6.936,15.352-6.936c13.82,0,19.921,4.531,24.439,12.618
					c0.076,0.139,0.152,0.279,0.228,0.405c0.076,0.164,0.152,0.304,0.228,0.43C275.616,88.518,275.679,88.645,275.742,88.759z"/>
				<path style="fill:#824037;" d="M323.185,233.968c-2.24,2.987-7.48,8.214-18.908,13.352l-5.101-3.999l2.481-13.39l15.099-9.733
					C316.756,220.198,319.287,225.88,323.185,233.968z"/>
				<path style="fill:#F2CED0;" d="M298.399,259.666l-9.45-89.637c0,0,6.923,1.544,13.744,8.024
					c5.402,5.122,23.08,55.863,29.834,76.628c3.912,12.027-2.236,17.225-10.698,18.944
					C307.847,276.463,299.333,268.522,298.399,259.666z"/>
				<path style="fill:#F2CED0;" d="M201.048,257.012l11.64-86.983c0,0-6.923,1.544-13.744,8.024
					c-5.402,5.122-23.08,55.863-29.834,76.628c-3.912,12.027,2.222,17.293,10.698,18.944
					C195.967,276.772,200.114,265.868,201.048,257.012z"/>
				<path style="fill:#F9D9D9;" d="M299.418,214.579c0,0-0.013,0.392-0.076,1.126c-1.455,22.654-5.392,50.916-4.594,63.483
					c0,0-3.063,1.101-10.087,2.202c-7.024,1.101-17.997,2.202-33.83,2.202c0,0,0,0-0.013,0c-31.653,0-43.917-4.404-43.917-4.404
					c0.291-4.543-0.038-11.15-0.658-18.807c-1.519-19.098-4.771-44.702-4.442-61.116c0.456-22.996,2.759-27.616,13.58-29.982
					c5.088-1.114,13.213-1.645,20.414-1.911c0,0,3.771,11.872,15.023,11.872c11.264,0,15.035-11.872,15.035-11.872
					c1.721,0.063,3.48,0.139,5.252,0.24c5.657,0.316,11.289,0.823,15.162,1.671c10.821,2.367,13.124,6.986,13.58,29.982
					C299.937,203.783,299.759,208.997,299.418,214.579z"/>
				<path style="fill:#F2CED0;" d="M294.748,279.188c0,0-3.063,1.101-10.087,2.202c-7.024,1.101-17.997,2.202-33.83,2.202
					c0,0,0,0-0.013,0c-31.653,0-43.917-4.404-43.917-4.404c0.291-4.543-0.038-11.15-0.658-18.807
					c10.542,2.518,46.676,9.72,67.786-4.113c21.794-14.276,24.882-35.488,25.312-40.563
					C297.886,238.359,293.95,266.621,294.748,279.188z"/>
				<path style="fill:none;stroke:#C68B90;stroke-miterlimit:10;" d="M250.196,222.903c0.419,19.983,0.838,39.965,1.256,59.948"/>
				<g>
					<circle style="fill:#FCECEB;" cx="247.167" cy="270.828" r="1.885"/>
					<path style="fill:#FCECEB;" d="M249.052,247.764c0,1.041-0.844,1.885-1.885,1.885s-1.885-0.844-1.885-1.885
						c0-1.041,0.844-1.885,1.885-1.885S249.052,246.723,249.052,247.764z"/>
					<circle style="fill:#FCECEB;" cx="246.521" cy="224.788" r="1.885"/>
				</g>
				<path style="fill:#F42727;" d="M310.426,211.248c-5.451-27.385-32.997-14.844-44.178-15.068
					c-7.582-0.152-12.585-3.976-12.992-8.94l5.358-5.358l-7.447-2.962l-7.447,2.962l5.488,5.488
					c-0.475,26.861,39.169,7.051,44.568,17.668c5.609,11.032,1.019,20.444,1.019,20.444l6.436,9.382l9.759-4.485
					C310.99,230.379,312.517,221.752,310.426,211.248z"/>
				<path style="fill:#FCECEB;" d="M265.77,167.371c0,0-4.239,8.681-14.596,11.525c0,0,4.376,5.088,12.225,5.228
					c7.849,0.14,5.381-16.753,5.381-16.753H265.77z"/>
				<path style="fill:#FCECEB;" d="M236.571,167.371c0,0,4.239,8.681,14.596,11.525c0,0-4.376,5.088-12.225,5.228
					c-7.849,0.14-5.381-16.753-5.381-16.753H236.571z"/>
				<g>
					<path style="fill:#F8947C;" d="M258.186,225.271c0,0,25.482,25.948,41.981,38.719c13.037,10.091,23.461,5.731,27.261,3.457
						c1.021-0.611,1.696-1.664,1.821-2.847c0.001-0.012,0.003-0.023,0.004-0.034c0.908-8.666-3.743-16.967-11.489-20.957
						c-13.859-7.138-43.043-21.597-50.409-27.146L258.186,225.271z"/>
					<path style="fill:#F8947C;" d="M243.283,225.271c0,0-25.482,25.948-41.981,38.719c-13.038,10.091-23.461,5.731-27.261,3.457
						c-1.021-0.611-1.696-1.664-1.821-2.847c-0.001-0.012-0.002-0.023-0.004-0.034c-0.908-8.666,3.743-16.967,11.489-20.957
						c13.859-7.138,42.986-21.782,50.353-27.331L243.283,225.271z"/>
					<path style="fill:#F8947C;" d="M235.967,210.201c0.047-0.042,0.07-0.104,0.122-0.14c0.049-0.034,0.099-0.085,0.149-0.127
						c0.112-0.106,0.196-0.208,0.32-0.315c0,0,0,0,0,0c3.384-3.826,7.984-23.714,7.984-23.714s1.534-6.305,2.546-11.587
						c1.012-5.282,4.952-5.623,5.223-1.363c0.271,4.26-0.668,8.236-0.668,8.236s0.738,0.795,0.663,2.329
						c-0.076,1.534-1.174,7.27-1.401,12.723c-0.227,5.453,1.818,12.723,1.324,19.085c-0.494,6.361-5.621,9.532-5.621,9.532
						l-4.791,1.814l-7.759-10.21l0.035-2.045C234.092,214.418,233.685,212.524,235.967,210.201z"/>
					<path style="fill:#F8947C;" d="M265.445,210.201c-0.047-0.042-0.07-0.104-0.122-0.14c-0.049-0.034-0.1-0.085-0.149-0.127
						c-0.112-0.106-0.196-0.208-0.32-0.315c0,0,0,0,0,0c-3.384-3.826-7.984-23.714-7.984-23.714s-1.533-6.305-2.545-11.587
						c-1.012-5.282-4.952-5.623-5.223-1.363c-0.271,4.26,0.668,8.236,0.668,8.236s-0.738,0.795-0.663,2.329
						c0.075,1.534,1.174,7.27,1.401,12.723c0.227,5.453-1.818,12.723-1.324,19.085c0.493,6.361,5.621,9.532,5.621,9.532l4.791,1.814
						l7.759-10.21l-0.034-2.045C267.321,214.418,267.727,212.524,265.445,210.201z"/>
					
						<line style="fill:none;stroke:#AE3838;stroke-linecap:round;stroke-miterlimit:10;" x1="250.824" y1="220.202" x2="250.824" y2="170.13"/>
					<path style="fill:none;stroke:#AE3838;stroke-linecap:round;stroke-miterlimit:10;" d="M255.197,178.583
						c0,0-1.453-8.91-4.373-8.91s-4.594,8.841-4.594,8.841"/>
				</g>
				<path style="fill:none;stroke:#153659;stroke-width:2;stroke-linecap:round;stroke-miterlimit:10;" d="M259.982,126.614
					c2.019,1.309,4.674,1.578,6.915,0.701"/>
				<path style="fill:none;stroke:#153659;stroke-width:2;stroke-linecap:round;stroke-miterlimit:10;" d="M243.434,126.711
					c-2.586,1.194-5.576,1.491-8.346,0.827"/>
			</g>
		</g>
		<g>
			<defs>
				
					<ellipse id="SVGID_00000142173322686901211490000004165639468027133113_" transform="matrix(0.7071 -0.7071 0.7071 0.7071 -103.4218 250.3176)" cx="250.449" cy="250" rx="210.637" ry="210.637"/>
			</defs>
			<clipPath id="SVGID_00000010308318979875715600000010236333674182538166_">
				<use xlink:href="#SVGID_00000142173322686901211490000004165639468027133113_"  style="overflow:visible;"/>
			</clipPath>
			<g style="clip-path:url(#SVGID_00000010308318979875715600000010236333674182538166_);">
				<g>
					<g>
						<rect x="82.46" y="413.802" style="fill:#356896;" width="335.979" height="11.199"/>
						<g>
							<g>
								<polygon style="fill:#F8FEFF;" points="332.046,329.153 319.085,403.886 181.817,403.886 168.856,329.153 								"/>
								<rect x="181.814" y="403.886" style="fill:#6476C0;" width="137.518" height="9.916"/>
								<rect x="168.853" y="324.197" style="fill:#6476C0;" width="163.189" height="4.957"/>
								<rect x="287.621" y="324.197" style="fill:#556AAD;" width="44.421" height="4.957"/>
								<polygon style="fill:#EDF7F9;" points="332.046,329.153 319.085,403.886 246.728,403.886 287.619,329.153 								"/>
							</g>
							<ellipse style="fill:#B6CBD8;" cx="250.449" cy="366.903" rx="18.683" ry="9.151"/>
							<path style="fill:#B6CBD8;" d="M191.855,408.844c0,1.386-1.124,2.51-2.51,2.51c-1.386,0-2.51-1.124-2.51-2.51
								c0-1.386,1.124-2.51,2.51-2.51C190.731,406.333,191.855,407.457,191.855,408.844z"/>
							<path style="fill:#B6CBD8;" d="M216.067,408.844c0,1.386-1.124,2.51-2.51,2.51c-1.386,0-2.51-1.124-2.51-2.51
								c0-1.386,1.124-2.51,2.51-2.51C214.943,406.333,216.067,407.457,216.067,408.844z"/>
							<rect x="194.619" y="406.333" style="fill:#B6CBD8;" width="13.377" height="5.02"/>
							<rect x="218.389" y="407.796" style="fill:#B6CBD8;" width="13.377" height="2.095"/>
						</g>
					</g>
					<rect x="123.968" y="419.401" style="fill:#294E84;" width="257.492" height="100.045"/>
					<rect x="120.191" y="419.401" style="fill:#1B3577;" width="258.981" height="8.476"/>
				</g>
				<g>
					<g>
						<path style="fill:none;stroke:#9BB0D3;stroke-miterlimit:10;" d="M373.859,405.718c-0.783-33.179,4.849-66.498,16.494-97.576"
							/>
						<g>
							<path style="fill:#9BB0D3;" d="M389.528,309.692c0,0,3.585-22.859,9.874-17.36
								C405.44,297.613,389.528,309.692,389.528,309.692z"/>
							<path style="fill:#9BB0D3;" d="M389.085,311.601c0,0-0.837-18.325-5.31-14.995
								C376.888,301.732,389.085,311.601,389.085,311.601z"/>
							<path style="fill:#9BB0D3;" d="M386.707,318.8c0,0-5.347-17.547-8.857-13.214C372.447,312.257,386.707,318.8,386.707,318.8z"
								/>
							<path style="fill:#9BB0D3;" d="M384.192,326.9c0,0-7.379-16.794-10.353-12.077C369.26,322.085,384.192,326.9,384.192,326.9z"
								/>
							<path style="fill:#9BB0D3;" d="M382.07,335.138c0,0-10.642-14.941-12.594-9.718
								C366.47,333.462,382.07,335.138,382.07,335.138z"/>
							<path style="fill:#9BB0D3;" d="M379.037,346.938c0,0-8.454-16.279-11.116-11.379
								C363.824,343.102,379.037,346.938,379.037,346.938z"/>
							<path style="fill:#9BB0D3;" d="M377.609,356.93c0,0-8.454-16.279-11.116-11.379
								C362.395,353.095,377.609,356.93,377.609,356.93z"/>
							<path style="fill:#9BB0D3;" d="M376.198,365.7c0,0-8.454-16.279-11.116-11.379C360.985,361.865,376.198,365.7,376.198,365.7z
								"/>
							<path style="fill:#9BB0D3;" d="M375.084,376.593c0,0-8.454-16.279-11.116-11.379
								C359.871,372.758,375.084,376.593,375.084,376.593z"/>
							<path style="fill:#9BB0D3;" d="M388.521,313.192c0,0,15.878-11.898,15.844-5.452
								C404.322,315.674,388.521,313.192,388.521,313.192z"/>
							<path style="fill:#9BB0D3;" d="M386.156,320.959c0,0,17.251-9.801,16.405-3.411
								C401.519,325.414,386.156,320.959,386.156,320.959z"/>
							<path style="fill:#9BB0D3;" d="M383.297,329.647c0,0,18.224-7.844,16.68-1.586
								C398.076,335.764,383.297,329.647,383.297,329.647z"/>
							<path style="fill:#9BB0D3;" d="M380.874,339.259c0,0,18.601-6.904,16.74-0.733
								C395.322,346.122,380.874,339.259,380.874,339.259z"/>
							<path style="fill:#9BB0D3;" d="M378.832,350.721c0,0,17.398-9.538,16.455-3.162
								C394.125,355.409,378.832,350.721,378.832,350.721z"/>
							<path style="fill:#9BB0D3;" d="M376.702,359.998c0,0,16.503-11.014,16.118-4.58
								C392.345,363.339,376.702,359.998,376.702,359.998z"/>
							<path style="fill:#9BB0D3;" d="M375.677,369.363c0,0,16.088-11.612,15.939-5.168
								C391.432,372.127,375.677,369.363,375.677,369.363z"/>
							<path style="fill:#9BB0D3;" d="M374.413,380.334c0,0,16.088-11.612,15.939-5.168
								C390.168,383.099,374.413,380.334,374.413,380.334z"/>
						</g>
					</g>
					<g>
						<g>
							<path style="fill:#B0C7E2;" d="M351.435,327.832c0,0-22.653-7.564-15.994-12.391
								C341.835,310.807,351.435,327.832,351.435,327.832z"/>
							<path style="fill:#B0C7E2;" d="M354.566,332.426c0,0-16.593-7.822-15.739-2.311
								C340.142,338.598,354.566,332.426,354.566,332.426z"/>
							<path style="fill:#B0C7E2;" d="M358.651,341.019c0,0-17.634-5.054-15.906,0.248
								C345.406,349.43,358.651,341.019,358.651,341.019z"/>
							<path style="fill:#B0C7E2;" d="M362.022,349.6c0,0-17.634-5.054-15.906,0.248C348.777,358.01,362.022,349.6,362.022,349.6z"
								/>
							<path style="fill:#B0C7E2;" d="M365.582,358.168c0,0-18.04-3.322-15.807,1.787
								C353.214,367.822,365.582,358.168,365.582,358.168z"/>
							<path style="fill:#B0C7E2;" d="M368.251,368.099c0,0-18.04-3.322-15.807,1.787
								C355.883,377.753,368.251,368.099,368.251,368.099z"/>
							<path style="fill:#B0C7E2;" d="M370.862,381.448c0,0-17.273-6.176-15.889-0.774
								C357.105,388.99,370.862,381.448,370.862,381.448z"/>
							<path style="fill:#B0C7E2;" d="M353.103,331.362c0,0-2.523-19.68,3.067-16.473
								C363.053,318.838,353.103,331.362,353.103,331.362z"/>
							<path style="fill:#B0C7E2;" d="M357.593,339.754c0,0,0.792-19.825,5.77-15.731
								C369.491,329.063,357.593,339.754,357.593,339.754z"/>
							<path style="fill:#B0C7E2;" d="M361.362,347.606c0,0,3.066-19.603,7.54-14.963
								C374.41,338.354,361.362,347.606,361.362,347.606z"/>
							<path style="fill:#B0C7E2;" d="M364.993,356.675c0,0,6.255-18.829,9.904-13.516
								C379.388,349.701,364.993,356.675,364.993,356.675z"/>
							<path style="fill:#B0C7E2;" d="M366.841,365.961c0,0,7.744-18.267,10.954-12.679
								C381.748,360.163,366.841,365.961,366.841,365.961z"/>
						</g>
						<path style="fill:none;stroke:#B0C7E2;stroke-linecap:round;stroke-linejoin:round;stroke-miterlimit:10;" d="
							M350.764,327.229c14.4,22.595,21.793,49.587,20.918,76.367"/>
					</g>
					<g>
						<g>
							<path style="fill:#B0C7E2;" d="M410.47,353.423c0,0,17.741-14.855,18.858-6.576
								C430.401,354.797,410.47,353.423,410.47,353.423z"/>
							<path style="fill:#B0C7E2;" d="M407.781,355.794c0,0,9.251-15.84,3.687-15.474
								C402.901,340.883,407.781,355.794,407.781,355.794z"/>
							<path style="fill:#B0C7E2;" d="M402.366,359.747c0,0,4.061-17.889-1.136-15.867
								C393.229,346.992,402.366,359.747,402.366,359.747z"/>
							<path style="fill:#B0C7E2;" d="M394.457,366.549c0,0,1.674-18.267-3.212-15.58
								C383.723,355.107,394.457,366.549,394.457,366.549z"/>
							<path style="fill:#B0C7E2;" d="M388.677,375.003c0,0-1.679-17.187-5.668-13.839
								C376.867,366.318,388.677,375.003,388.677,375.003z"/>
							<path style="fill:#B0C7E2;" d="M383.48,385.836c0,0-1.794-18.256-6.087-14.697
								C370.784,376.618,383.48,385.836,383.48,385.836z"/>
							<path style="fill:#B0C7E2;" d="M406.397,356.447c0,0,19.655-2.709,16.501,2.911
								C419.015,366.278,406.397,356.447,406.397,356.447z"/>
							<path style="fill:#B0C7E2;" d="M399.129,362.315c0,0,19.834-0.516,16.077,4.721
								C410.581,373.482,399.129,362.315,399.129,362.315z"/>
							<path style="fill:#B0C7E2;" d="M391.652,370.646c0,0,19.834-0.516,16.077,4.721
								C403.104,381.814,391.652,370.646,391.652,370.646z"/>
							<path style="fill:#B0C7E2;" d="M385.711,380.839c0,0,19.403-4.144,16.67,1.693
								C399.016,389.718,385.711,380.839,385.711,380.839z"/>
						</g>
						<path style="fill:none;stroke:#B0C7E2;stroke-linecap:round;stroke-linejoin:round;stroke-miterlimit:10;" d="
							M412.009,352.763c-18.987,10.134-31.989,30.661-33.038,52.158"/>
					</g>
					<g>
						<path style="fill:#6476C0;" d="M389.049,414.393h-29.273c-5.872-2.503-8.524-4.246-9.223-6.582
							c-0.393-1.28-0.175-2.742,0.408-4.61l8.815-17.862h29.273l7.388,14.928l1.443,2.934
							C399.511,408.466,398.156,410.517,389.049,414.393z"/>
						<path style="fill:#5462B5;" d="M389.049,414.393h-29.273c-5.872-2.503-8.524-4.246-9.223-6.582
							c9.69,1.191,20.793,0.994,29.783-0.781c6.251-1.233,11.249-3.195,14.469-5.458c0.612-0.427,1.151-0.858,1.632-1.306
							l1.443,2.934C399.511,408.466,398.156,410.517,389.049,414.393z"/>
					</g>
				</g>
				<g>
					<g>
						<g>
							<path style="fill:#8191C1;" d="M165.606,415.05H74.797v-16.074h90.809c4.349,0,7.874,3.525,7.874,7.874v0.326
								C173.48,411.525,169.955,415.05,165.606,415.05z"/>
							<path style="fill:#9BB0D3;" d="M155.606,415.05H64.797v-16.074h90.809c4.349,0,7.874,3.525,7.874,7.874v0.326
								C163.48,411.525,159.955,415.05,155.606,415.05z"/>
						</g>
						<g>
							<path style="fill:#F8FEFF;" d="M158.375,406.88c0,0.42-0.05,0.83-0.15,1.22c-0.05,0.26-0.13,0.51-0.23,0.75
								c-0.18,0.47-0.43,0.91-0.74,1.3c-0.13,0.18-0.28,0.35-0.44,0.51c-0.09,0.09-0.18,0.17-0.28,0.25
								c-0.94,0.82-2.17,1.31-3.5,1.31h-88.24v-10.68h88.24c1.11,0,2.15,0.34,3.01,0.93c0.32,0.21,0.61,0.47,0.88,0.75
								c0.24,0.25,0.44,0.52,0.63,0.81c0.15,0.24,0.28,0.49,0.39,0.75c0.11,0.26,0.2,0.53,0.27,0.81c0.06,0.24,0.11,0.49,0.13,0.75
								C158.365,406.51,158.375,406.7,158.375,406.88z"/>
							<g>
								<path style="fill:#B6CBD8;" d="M156.925,403.22h-62.8l61.92-0.75C156.365,402.68,156.655,402.94,156.925,403.22z"/>
								<path style="fill:#B6CBD8;" d="M157.945,404.78h-40.14l39.75-0.75C157.705,404.27,157.835,404.52,157.945,404.78z"/>
								<path style="fill:#B6CBD8;" d="M158.345,406.34h-44.06l43.93-0.75C158.275,405.83,158.325,406.08,158.345,406.34z"/>
								<path style="fill:#B6CBD8;" d="M158.225,408.1c-0.05,0.26-0.13,0.51-0.23,0.75h-43.23L158.225,408.1z"/>
								<path style="fill:#B6CBD8;" d="M157.255,410.15c-0.13,0.18-0.28,0.35-0.44,0.51c-0.09,0.09-0.18,0.17-0.28,0.25h-61.64
									L157.255,410.15z"/>
							</g>
						</g>
					</g>
					<g>
						<g>
							<path style="fill:#95B1C9;" d="M158.053,398.976H67.244v-16.074h90.809c4.349,0,7.874,3.525,7.874,7.874v0.326
								C165.927,395.451,162.402,398.976,158.053,398.976z"/>
							<path style="fill:#ADC9DB;" d="M148.053,398.976H57.244v-16.074h90.809c4.349,0,7.874,3.525,7.874,7.874v0.326
								C155.927,395.451,152.402,398.976,148.053,398.976z"/>
						</g>
						<g>
							<path style="fill:#F8FEFF;" d="M150.822,390.806c0,0.42-0.05,0.83-0.15,1.22c-0.05,0.26-0.13,0.51-0.23,0.75
								c-0.18,0.47-0.43,0.91-0.74,1.3c-0.13,0.18-0.28,0.35-0.44,0.51c-0.09,0.09-0.18,0.17-0.28,0.25
								c-0.94,0.82-2.17,1.31-3.5,1.31h-88.24v-10.68h88.24c1.11,0,2.15,0.34,3.01,0.93c0.32,0.21,0.61,0.47,0.88,0.75
								c0.24,0.25,0.44,0.52,0.63,0.81c0.15,0.24,0.28,0.49,0.39,0.75s0.2,0.53,0.27,0.81c0.06,0.24,0.11,0.49,0.13,0.75
								C150.812,390.436,150.822,390.626,150.822,390.806z"/>
							<g>
								<path style="fill:#B6CBD8;" d="M149.372,387.146h-62.8l61.92-0.75C148.812,386.606,149.102,386.866,149.372,387.146z"/>
								<path style="fill:#B6CBD8;" d="M150.392,388.706h-40.14l39.75-0.75C150.152,388.196,150.282,388.446,150.392,388.706z"/>
								<path style="fill:#B6CBD8;" d="M150.792,390.266h-44.06l43.93-0.75C150.722,389.756,150.772,390.006,150.792,390.266z"/>
								<path style="fill:#B6CBD8;" d="M150.672,392.026c-0.05,0.26-0.13,0.51-0.23,0.75h-43.23L150.672,392.026z"/>
								<path style="fill:#B6CBD8;" d="M149.702,394.076c-0.13,0.18-0.28,0.35-0.44,0.51c-0.09,0.09-0.18,0.17-0.28,0.25h-61.64
									L149.702,394.076z"/>
							</g>
						</g>
					</g>
					<g>
						<g>
							<path style="fill:#8191C1;" d="M160.607,382.902H69.798v-16.074h90.809c4.349,0,7.874,3.525,7.874,7.874v0.326
								C168.481,379.376,164.956,382.902,160.607,382.902z"/>
							<path style="fill:#9BB0D3;" d="M150.607,382.902H59.798v-16.074h90.809c4.349,0,7.874,3.525,7.874,7.874v0.326
								C158.481,379.376,154.956,382.902,150.607,382.902z"/>
						</g>
						<g>
							<path style="fill:#F8FEFF;" d="M153.376,374.732c0,0.42-0.05,0.83-0.15,1.22c-0.05,0.26-0.13,0.51-0.23,0.75
								c-0.18,0.47-0.43,0.91-0.74,1.3c-0.13,0.18-0.28,0.35-0.44,0.51c-0.09,0.09-0.18,0.17-0.28,0.25
								c-0.94,0.82-2.17,1.31-3.5,1.31h-88.24v-10.68h88.24c1.11,0,2.15,0.34,3.01,0.93c0.32,0.21,0.61,0.47,0.88,0.75
								c0.24,0.25,0.44,0.52,0.63,0.81c0.15,0.24,0.28,0.49,0.39,0.75c0.11,0.26,0.2,0.53,0.27,0.81c0.06,0.24,0.11,0.49,0.13,0.75
								C153.366,374.362,153.376,374.552,153.376,374.732z"/>
							<g>
								<path style="fill:#B6CBD8;" d="M151.926,371.072h-62.8l61.92-0.75C151.366,370.532,151.656,370.792,151.926,371.072z"/>
								<path style="fill:#B6CBD8;" d="M152.946,372.632h-40.14l39.75-0.75C152.706,372.122,152.836,372.372,152.946,372.632z"/>
								<path style="fill:#B6CBD8;" d="M153.346,374.192h-44.06l43.93-0.75C153.276,373.682,153.326,373.932,153.346,374.192z"/>
								<path style="fill:#B6CBD8;" d="M153.226,375.952c-0.05,0.26-0.13,0.51-0.23,0.75h-43.23L153.226,375.952z"/>
								<path style="fill:#B6CBD8;" d="M152.256,378.002c-0.13,0.18-0.28,0.35-0.44,0.51c-0.09,0.09-0.18,0.17-0.28,0.25h-61.64
									L152.256,378.002z"/>
							</g>
						</g>
					</g>
				</g>
			</g>
		</g>
	</g>
</g>
</svg>
