<?xml version="1.0" encoding="utf-8"?>
<!-- Generator: Adobe Illustrator 27.5.0, SVG Export Plug-In . SVG Version: 6.00 Build 0)  -->
<svg version="1.1" xmlns="http://www.w3.org/2000/svg" xmlns:xlink="http://www.w3.org/1999/xlink" x="0px" y="0px"
	 viewBox="0 0 500 500" style="enable-background:new 0 0 500 500;" xml:space="preserve">
<g id="BACKGROUND">
	<rect style="fill:#C5CEEB;" width="500" height="500"/>
</g>
<g id="OBJECTS">
	<g>
		<path style="fill:#FFFFFF;" d="M315.032,142.275c-3.05,0.836-6.237,1.838-8.054,4.654c-1.104,1.712-1.233,3.966-0.04,5.618
			c3.622,5.016,13.445-1.898,17.41,2.988c1.806,2.225,1.208,5.519-1.015,7.329c-3.956,3.222-8.814,2.152-13.37,1.54
			c-10.484-1.408-22.098,0.104-29.093,8.917c-3.948,4.975-5.086,11.768-2.207,17.428c4.397,8.643,15.213,9.773,24.499,10.099
			c50.395,1.765,101.175,3.509,150.95-4.563c7.082-1.148,14.526-2.667,19.186-8.723c2.327-3.024,3.237-6.996,1.93-10.58
			c-2.398-6.575-9.98-7.628-16.438-8.036c-4.288-0.271-8.575-0.542-12.863-0.813c-2.431-0.154-2.572-3.679-0.162-4.027l4.853-0.701
			c6.227-0.899,13.461-2.484,15.524-8.837c1.307-4.025-0.11-8.375-3.13-11.339c-5.78-5.674-13.805-5.963-21.371-6.129
			C400.45,136.197,355.135,130.244,315.032,142.275z"/>
		<path style="fill:#FFFFFF;" d="M207.513,144.127c-56.07,1.076-112.141,2.152-168.211,3.228c-4.152,0.08-8.687,0.034-11.911-2.583
			c-5.367-4.357-3.562-13.705,1.91-17.929c5.472-4.224,12.965-4.559,19.855-4.003c6.89,0.557,13.924,1.812,20.63,0.133
			c4.531-1.135,9.394-5.352,7.626-9.674c-1.384-3.383-5.826-4.138-9.472-3.883c-6.766,0.474-13.336,2.674-20.112,2.967
			c-6.776,0.293-14.348-1.909-17.654-7.831c-4.102-7.35,0.54-17.104,7.718-21.5c7.178-4.396,16.006-4.849,24.417-5.181
			c38.84-1.533,77.68-3.065,116.52-4.598c28.204-1.113,55.458-1.94,83.654-0.638c4.62,0.213,9.395,0.507,13.515,2.607
			c4.121,2.1,7.431,6.509,6.78,11.088c-0.583,4.098-4.129,7.226-7.964,8.783c-3.836,1.557-8.035,1.903-12.088,2.745
			c-3.455,0.718-6.951,1.874-9.544,4.266c-2.594,2.392-4.07,6.27-2.804,9.564c2.081,5.418,9.785,6.429,12.793,11.392
			c2.536,4.185,0.692,9.931-2.939,13.211c-3.631,3.28-8.575,4.631-13.367,5.622C234.28,144.518,220.363,143.881,207.513,144.127z"/>
		<path style="fill:#FFFFFF;" d="M224.583,276.039c-17.721,0.359-35.442,0.718-53.162,1.077c-5.275,0.107-10.688,0.192-15.655-1.585
			c-4.968-1.777-9.471-5.85-10.186-11.078c-0.604-4.417,1.619-8.876,4.91-11.884c3.291-3.007,7.529-4.764,11.788-6.083
			c9.453-2.929,19.483-3.98,29.338-3.073c4.017,0.37,8.265,1.025,11.931-0.658c3.666-1.683,5.985-6.888,3.249-9.852
			c-3.969-4.299-12.822,0.773-16.404-3.854c-1.964-2.537-0.584-6.502,2.016-8.383c2.6-1.881,5.967-2.237,9.162-2.531
			c10.733-0.987,21.466-1.975,32.199-2.963c20.02-1.842,39.287,0.485,59.389,0.184c5.221-0.078,10.82-0.049,15.127,2.904
			s6.104,10.02,2.086,13.356c-3.103,2.575-7.655,1.684-11.685,1.544c-4.03-0.141-9.131,1.791-9.067,5.823
			c0.05,3.159,3.429,5.243,6.547,5.75c3.118,0.507,6.412,0.091,9.367,1.208c5.443,2.056,7.859,9.081,6.025,14.602
			c-1.834,5.521-6.946,9.452-12.446,11.348c-5.5,1.896-11.424,2.066-17.24,2.217C263.263,274.591,243.194,275.661,224.583,276.039z"
			/>
	</g>
	<g>
		<polygon style="fill:#DD2120;" points="79.284,344.139 85.505,337.714 76.83,335.539 		"/>
		<polygon style="fill:#270504;" points="414.926,345.027 408.705,351.453 417.38,353.628 		"/>
		<polygon style="fill:#FFFFFF;" points="343.575,273.36 350.42,279.117 351.982,270.31 		"/>
		<polygon style="fill:#FFFFFF;" points="143.921,60.06 135.145,61.784 141.026,68.522 		"/>
		<path style="fill:#FE857A;" d="M91.53,106.286c0-1.428-1.158-2.586-2.586-2.586c-1.428,0-2.586,1.158-2.586,2.586
			s1.158,2.586,2.586,2.586C90.372,108.871,91.53,107.714,91.53,106.286z"/>
		<path style="fill:#FE857A;" d="M450.278,238.313c0-1.428-1.158-2.586-2.586-2.586c-1.428,0-2.586,1.158-2.586,2.586
			c0,1.428,1.158,2.586,2.586,2.586C449.121,240.899,450.278,239.741,450.278,238.313z"/>
		<path style="fill:#FFFFFF;" d="M417.143,90.338c0-1.428-1.158-2.586-2.586-2.586c-1.428,0-2.586,1.158-2.586,2.586
			c0,1.428,1.158,2.586,2.586,2.586C415.985,92.924,417.143,91.766,417.143,90.338z"/>
		<path style="fill:#FFFFFF;" d="M75.437,219.937c0-1.428-1.158-2.586-2.586-2.586c-1.428,0-2.585,1.158-2.585,2.586
			c0,1.428,1.158,2.586,2.585,2.586C74.279,222.522,75.437,221.365,75.437,219.937z"/>
		<path style="fill:#DD2120;" d="M424.662,147.856c0-0.857-0.695-1.551-1.551-1.551c-0.857,0-1.551,0.694-1.551,1.551
			c0,0.857,0.695,1.551,1.551,1.551C423.968,149.407,424.662,148.713,424.662,147.856z"/>
		<path style="fill:#FFFFFF;" d="M407.583,229.001c0-0.857-0.694-1.551-1.551-1.551c-0.857,0-1.551,0.695-1.551,1.551
			c0,0.857,0.695,1.551,1.551,1.551C406.889,230.552,407.583,229.858,407.583,229.001z"/>
		<path style="fill:#270504;" d="M276.4,66.297c0-0.857-0.695-1.551-1.551-1.551c-0.857,0-1.551,0.695-1.551,1.551
			c0,0.857,0.694,1.551,1.551,1.551C275.705,67.848,276.4,67.153,276.4,66.297z"/>
		<path style="fill:#324498;" d="M253.304,191.087c0-0.857-0.695-1.551-1.551-1.551s-1.551,0.695-1.551,1.551
			c0,0.857,0.695,1.551,1.551,1.551S253.304,191.944,253.304,191.087z"/>
		<path style="fill:#324498;" d="M46.48,209.085c0-0.857-0.694-1.551-1.551-1.551s-1.551,0.695-1.551,1.551
			c0,0.857,0.695,1.551,1.551,1.551S46.48,209.942,46.48,209.085z"/>
		<path style="fill:#FE857A;" d="M443.059,135.107c0-0.857-0.695-1.551-1.551-1.551c-0.857,0-1.551,0.694-1.551,1.551
			c0,0.857,0.695,1.551,1.551,1.551C442.364,136.658,443.059,135.963,443.059,135.107z"/>
		<path style="fill:#270504;" d="M52.51,173.901c0-0.857-0.695-1.551-1.551-1.551c-0.857,0-1.551,0.695-1.551,1.551
			s0.695,1.551,1.551,1.551C51.815,175.453,52.51,174.758,52.51,173.901z"/>
		<path style="fill:#270504;" d="M241.229,170.244c0-0.857-0.695-1.551-1.551-1.551c-0.857,0-1.551,0.695-1.551,1.551
			c0,0.857,0.695,1.551,1.551,1.551C240.535,171.795,241.229,171.101,241.229,170.244z"/>
	</g>
	<g>
		<g>
			<path style="fill:#FFFFFF;" d="M388.511,102.686c0-5.621-4.75-10.132-10.455-9.738c-4.871,0.336-8.793,4.323-9.055,9.199
				c-0.116,2.16,0.471,4.177,1.553,5.843c1.352,2.082,2.409,4.342,2.993,6.755l0.27,1.114h9.865l0.233-0.962
				c0.6-2.48,1.681-4.804,3.059-6.952C387.946,106.427,388.511,104.623,388.511,102.686z"/>
			<path style="fill:#270504;" d="M383.922,118.344h-0.241v-0.77h0.241c0.606,0,1.098-0.492,1.098-1.098s-0.492-1.098-1.098-1.098
				h-10.348c-0.607,0-1.098,0.492-1.098,1.098s0.492,1.098,1.098,1.098h0.241v0.77h-0.241c-0.607,0-1.098,0.492-1.098,1.098
				c0,0.606,0.492,1.098,1.098,1.098h0.241h9.866h0.241c0.606,0,1.098-0.492,1.098-1.098
				C385.021,118.836,384.529,118.344,383.922,118.344z"/>
			<path style="fill:none;stroke:#270504;stroke-linecap:round;stroke-linejoin:round;stroke-miterlimit:10;" d="M377.945,114.321
				c-0.387-3.526-0.774-7.052-1.161-10.578c1.219,0.401,2.738,0.472,3.93-0.004c-0.298,3.558-0.536,7.03-0.834,10.589"/>
		</g>
		<g>
			<path style="fill:#FE857A;" d="M290.134,139.316c0-5.621-4.75-10.132-10.455-9.738c-4.871,0.336-8.793,4.323-9.055,9.199
				c-0.116,2.16,0.471,4.177,1.552,5.843c1.352,2.083,2.409,4.342,2.993,6.755l0.27,1.114h9.865l0.233-0.962
				c0.6-2.48,1.681-4.804,3.059-6.952C289.569,143.057,290.134,141.252,290.134,139.316z"/>
			<path style="fill:#324498;" d="M285.546,154.974h-0.241v-0.77h0.241c0.606,0,1.098-0.491,1.098-1.098
				c0-0.607-0.492-1.098-1.098-1.098h-10.348c-0.607,0-1.098,0.492-1.098,1.098c0,0.606,0.491,1.098,1.098,1.098h0.241v0.77h-0.241
				c-0.607,0-1.098,0.492-1.098,1.098c0,0.606,0.491,1.098,1.098,1.098h0.241h9.866h0.241c0.606,0,1.098-0.492,1.098-1.098
				C286.644,155.465,286.152,154.974,285.546,154.974z"/>
			<path style="fill:none;stroke:#270504;stroke-linecap:round;stroke-linejoin:round;stroke-miterlimit:10;" d="M279.568,150.951
				c-0.387-3.526-0.774-7.052-1.161-10.578c1.219,0.401,2.738,0.472,3.93-0.004c-0.298,3.558-0.536,7.03-0.834,10.589"/>
		</g>
		<g>
			<path style="fill:#F2AA31;" d="M310.4,187.516c0-5.621-4.75-10.132-10.455-9.738c-4.871,0.336-8.793,4.323-9.055,9.199
				c-0.116,2.16,0.471,4.177,1.553,5.843c1.352,2.083,2.409,4.342,2.993,6.755l0.27,1.114h9.865l0.233-0.962
				c0.6-2.48,1.681-4.804,3.059-6.952C309.835,191.257,310.4,189.453,310.4,187.516z"/>
			<path style="fill:#270504;" d="M305.811,203.174h-0.241v-0.77h0.241c0.606,0,1.098-0.492,1.098-1.098s-0.492-1.098-1.098-1.098
				h-10.348c-0.607,0-1.098,0.492-1.098,1.098s0.491,1.098,1.098,1.098h0.241v0.77h-0.241c-0.607,0-1.098,0.492-1.098,1.098
				c0,0.606,0.491,1.098,1.098,1.098h0.241h9.865h0.241c0.606,0,1.098-0.492,1.098-1.098
				C306.909,203.666,306.418,203.174,305.811,203.174z"/>
			<path style="fill:none;stroke:#270504;stroke-linecap:round;stroke-linejoin:round;stroke-miterlimit:10;" d="M299.833,199.151
				c-0.387-3.526-0.774-7.052-1.161-10.578c1.219,0.401,2.738,0.472,3.93-0.004c-0.298,3.558-0.536,7.03-0.834,10.589"/>
		</g>
		<g>
			<path style="fill:#FE857A;" d="M444.75,202.305c0-5.621-4.75-10.132-10.455-9.738c-4.871,0.336-8.793,4.323-9.055,9.199
				c-0.116,2.16,0.471,4.177,1.552,5.843c1.352,2.083,2.409,4.342,2.993,6.755l0.27,1.114h9.865l0.233-0.962
				c0.601-2.48,1.682-4.804,3.059-6.952C444.185,206.046,444.75,204.242,444.75,202.305z"/>
			<path style="fill:#270504;" d="M440.162,217.963h-0.241v-0.77h0.241c0.606,0,1.098-0.492,1.098-1.098
				c0-0.606-0.492-1.098-1.098-1.098h-10.348c-0.607,0-1.098,0.492-1.098,1.098c0,0.606,0.492,1.098,1.098,1.098h0.241v0.77h-0.241
				c-0.607,0-1.098,0.492-1.098,1.098c0,0.606,0.492,1.098,1.098,1.098h0.241h9.866h0.241c0.606,0,1.098-0.492,1.098-1.098
				C441.26,218.455,440.768,217.963,440.162,217.963z"/>
			<path style="fill:none;stroke:#270504;stroke-linecap:round;stroke-linejoin:round;stroke-miterlimit:10;" d="M434.184,213.941
				c-0.387-3.526-0.774-7.052-1.161-10.578c1.219,0.401,2.738,0.472,3.93-0.004c-0.298,3.558-0.536,7.03-0.834,10.589"/>
		</g>
		<g>
			<path style="fill:#FFFFFF;" d="M219.056,185.25c0-5.621-4.75-10.132-10.455-9.738c-4.871,0.336-8.793,4.323-9.055,9.199
				c-0.116,2.16,0.471,4.177,1.552,5.843c1.352,2.083,2.409,4.342,2.993,6.755l0.27,1.114h9.865l0.233-0.962
				c0.6-2.48,1.682-4.804,3.059-6.952C218.491,188.991,219.056,187.187,219.056,185.25z"/>
			<path style="fill:#324498;" d="M214.467,200.908h-0.241v-0.77h0.241c0.606,0,1.098-0.492,1.098-1.098
				c0-0.606-0.492-1.098-1.098-1.098H204.12c-0.607,0-1.098,0.492-1.098,1.098c0,0.606,0.492,1.098,1.098,1.098h0.241v0.77h-0.241
				c-0.607,0-1.098,0.492-1.098,1.098c0,0.606,0.492,1.098,1.098,1.098h0.241h9.866h0.241c0.606,0,1.098-0.492,1.098-1.098
				C215.565,201.4,215.074,200.908,214.467,200.908z"/>
			<path style="fill:none;stroke:#270504;stroke-linecap:round;stroke-linejoin:round;stroke-miterlimit:10;" d="M208.489,196.886
				c-0.387-3.526-0.774-7.052-1.161-10.578c1.219,0.401,2.738,0.472,3.93-0.004c-0.298,3.558-0.536,7.03-0.834,10.589"/>
		</g>
		<g>
			<path style="fill:#FE857A;" d="M146.688,114.697c0-5.621-4.75-10.132-10.455-9.738c-4.871,0.336-8.793,4.323-9.055,9.199
				c-0.116,2.16,0.471,4.177,1.553,5.843c1.352,2.082,2.409,4.342,2.993,6.755l0.27,1.114h9.865l0.233-0.962
				c0.6-2.48,1.681-4.804,3.059-6.952C146.123,118.438,146.688,116.634,146.688,114.697z"/>
			<path style="fill:#270504;" d="M142.099,130.355h-0.241v-0.77h0.241c0.606,0,1.098-0.492,1.098-1.098s-0.492-1.098-1.098-1.098
				h-10.348c-0.606,0-1.098,0.492-1.098,1.098s0.492,1.098,1.098,1.098h0.241v0.77h-0.241c-0.606,0-1.098,0.492-1.098,1.098
				c0,0.606,0.492,1.098,1.098,1.098h0.241h9.865h0.241c0.606,0,1.098-0.492,1.098-1.098
				C143.197,130.847,142.706,130.355,142.099,130.355z"/>
			<path style="fill:none;stroke:#270504;stroke-linecap:round;stroke-linejoin:round;stroke-miterlimit:10;" d="M136.122,126.332
				c-0.387-3.526-0.774-7.052-1.161-10.578c1.219,0.401,2.738,0.472,3.93-0.004c-0.298,3.558-0.536,7.03-0.834,10.589"/>
		</g>
		<g>
			<path style="fill:#F2AA31;" d="M96.121,172.41c0-5.621-4.75-10.132-10.455-9.738c-4.871,0.336-8.793,4.323-9.055,9.199
				c-0.116,2.16,0.471,4.177,1.552,5.843c1.352,2.083,2.409,4.342,2.993,6.755l0.27,1.114h9.865l0.233-0.962
				c0.601-2.48,1.682-4.804,3.059-6.952C95.556,176.151,96.121,174.347,96.121,172.41z"/>
			<path style="fill:#270504;" d="M91.532,188.068h-0.241v-0.77h0.241c0.606,0,1.098-0.492,1.098-1.098
				c0-0.607-0.492-1.098-1.098-1.098H81.185c-0.607,0-1.098,0.492-1.098,1.098c0,0.606,0.492,1.098,1.098,1.098h0.241v0.77h-0.241
				c-0.607,0-1.098,0.492-1.098,1.098c0,0.606,0.492,1.098,1.098,1.098h0.241h9.866h0.241c0.606,0,1.098-0.492,1.098-1.098
				C92.631,188.56,92.139,188.068,91.532,188.068z"/>
			<path style="fill:none;stroke:#270504;stroke-linecap:round;stroke-linejoin:round;stroke-miterlimit:10;" d="M85.555,184.046
				c-0.387-3.526-0.774-7.052-1.161-10.578c1.219,0.401,2.738,0.472,3.93-0.004c-0.298,3.558-0.536,7.03-0.834,10.589"/>
		</g>
		<g>
			<path style="fill:#FE857A;" d="M117.195,213.305c0-5.621-4.75-10.132-10.455-9.738c-4.871,0.336-8.793,4.323-9.055,9.199
				c-0.116,2.16,0.471,4.177,1.552,5.843c1.352,2.083,2.409,4.342,2.993,6.755l0.27,1.114h9.865l0.233-0.962
				c0.601-2.48,1.682-4.804,3.059-6.952C116.63,217.046,117.195,215.242,117.195,213.305z"/>
			<path style="fill:#324498;" d="M112.607,228.963h-0.241v-0.77h0.241c0.606,0,1.098-0.492,1.098-1.098s-0.492-1.098-1.098-1.098
				h-10.348c-0.606,0-1.098,0.492-1.098,1.098s0.492,1.098,1.098,1.098h0.241v0.77h-0.241c-0.606,0-1.098,0.492-1.098,1.098
				s0.492,1.098,1.098,1.098h0.241h9.866h0.241c0.606,0,1.098-0.492,1.098-1.098S113.213,228.963,112.607,228.963z"/>
			<path style="fill:none;stroke:#270504;stroke-linecap:round;stroke-linejoin:round;stroke-miterlimit:10;" d="M106.629,224.94
				c-0.387-3.526-0.774-7.052-1.161-10.578c1.219,0.401,2.738,0.472,3.93-0.004c-0.298,3.558-0.536,7.03-0.834,10.589"/>
		</g>
	</g>
	<g>
		<g>
			<path style="fill:#FF9A7D;" d="M99.051,265.155c-4.119-3.583-8.192-7.091-12.312-10.674c-0.991,0.133-1.678,1.137-1.791,2.13
				c-0.112,0.993,0.215,1.978,0.539,2.923c1.972,5.775,3.944,11.551,5.917,17.326c-3.812,0.415-7.684,0.579-11.495,0.994
				c-1.948-3.954-4.118-8.284-6.066-12.238c-0.361-0.733-0.651-1.502-1.362-1.905c-0.711-0.403-1.62-0.434-2.357-0.079
				c1.148,5.189,2.278,10.231,3.425,15.419c-3.485-4.656-7.059-9.444-10.545-14.1c-0.486-0.65-1.267-1.666-2.044-1.899
				c-0.778-0.233-1.67-0.034-2.274,0.508c1.966,4.908,3.84,9.688,5.806,14.596c-0.88-0.317-2.081-0.454-2.962-0.771
				c-2.196-2.835-4.584-5.6-6.779-8.435c-0.48-0.62-1.439-1.218-2.222-1.268c-0.782-0.05-1.579,0.309-2.06,0.928
				c1.562,3.659,2.939,7.044,4.501,10.702c-1.405-0.527-3.28-0.948-4.779-0.882c-1.499,0.067-3.07,0.894-3.536,2.321
				c6.596,3.637,13.198,7.255,19.794,10.892c12.929,7.129,27.818,7.503,42.298,19.062l18.616-25.835l-5.911-3.765
				C115.224,274.184,106.076,271.265,99.051,265.155z"/>
			<path style="fill:none;stroke:#270504;stroke-linecap:round;stroke-linejoin:round;stroke-miterlimit:10;" d="M91.603,276.298
				c1.817,3.699,5.716,6.284,9.83,6.518"/>
			<path style="fill:none;stroke:#270504;stroke-linecap:round;stroke-linejoin:round;stroke-miterlimit:10;" d="M80.104,277.85
				c0.488,1.399,0.976,2.798,1.463,4.197c7.861-0.564,16.272,1.969,22.527,6.763"/>
			<path style="fill:none;stroke:#270504;stroke-linecap:round;stroke-linejoin:round;stroke-miterlimit:10;" d="M72.861,277.53
				c0.956,2.6,1.912,5.2,2.868,7.8"/>
			<path style="fill:none;stroke:#270504;stroke-linecap:round;stroke-linejoin:round;stroke-miterlimit:10;" d="M64.159,278.245
				c1.588,3.343,3.176,6.686,4.763,10.03"/>
			<path style="fill:none;stroke:#270504;stroke-linecap:round;stroke-linejoin:round;stroke-miterlimit:10;" d="M54.748,279.116
				c2.239,3.607,4.994,6.892,8.157,9.723"/>
		</g>
		<g>
			<path style="fill:#FF9A7D;" d="M403.3,265.155c4.119-3.583,8.192-7.091,12.311-10.674c0.991,0.133,1.678,1.137,1.791,2.13
				c0.112,0.993-0.215,1.978-0.538,2.923c-1.972,5.775-3.945,11.551-5.917,17.326c3.811,0.415,7.684,0.579,11.495,0.994
				c1.948-3.954,4.118-8.284,6.066-12.238c0.361-0.733,0.651-1.502,1.362-1.905c0.711-0.403,1.621-0.434,2.358-0.079
				c-1.148,5.189-2.278,10.231-3.425,15.419c3.485-4.656,7.059-9.444,10.545-14.1c0.486-0.65,1.267-1.666,2.044-1.899
				c0.777-0.233,1.67-0.034,2.274,0.508c-1.966,4.908-3.84,9.688-5.806,14.596c0.88-0.317,2.081-0.454,2.962-0.771
				c2.196-2.835,4.584-5.6,6.779-8.435c0.48-0.62,1.44-1.218,2.222-1.268c0.782-0.05,1.579,0.309,2.06,0.928
				c-1.562,3.659-2.939,7.044-4.501,10.702c1.405-0.527,3.28-0.948,4.779-0.882c1.499,0.067,3.07,0.894,3.536,2.321
				c-6.596,3.637-13.198,7.255-19.794,10.892c-12.929,7.129-27.819,7.503-42.298,19.062l-18.616-25.835l5.911-3.765
				C387.127,274.184,396.275,271.265,403.3,265.155z"/>
			<path style="fill:none;stroke:#270504;stroke-linecap:round;stroke-linejoin:round;stroke-miterlimit:10;" d="M410.839,276.958
				c-1.63,3.726-5.046,6.621-8.989,7.617"/>
			<path style="fill:none;stroke:#270504;stroke-linecap:round;stroke-linejoin:round;stroke-miterlimit:10;" d="M422.415,277.532
				c-0.685,1.819-1.37,3.638-2.055,5.457c-6.451,0.642-12.599,1.145-19.05,1.787"/>
			<path style="fill:none;stroke:#270504;stroke-linecap:round;stroke-linejoin:round;stroke-miterlimit:10;" d="M428.643,278.074
				c-1.029,3.773-2.057,7.547-3.086,11.32"/>
			<path style="fill:none;stroke:#270504;stroke-linecap:round;stroke-linejoin:round;stroke-miterlimit:10;" d="M438.375,277.022
				c-1.739,4.244-3.478,8.488-5.218,12.732"/>
			<path style="fill:none;stroke:#270504;stroke-linecap:round;stroke-linejoin:round;stroke-miterlimit:10;" d="M447.26,279.631
				c-3.023,2.758-6.046,5.517-9.069,8.275"/>
		</g>
		<path style="fill:#270504;" d="M210.86,359.867c9.855,12.76,25.169,21.558,41.283,22.09c16.114,0.532,32.588-7.823,40.423-21.915
			L210.86,359.867z"/>
		<g>
			<path style="fill:#3C5BBF;" d="M379.222,279.669c-14.31,6.846-28.617,13.95-42.927,20.797
				c-8.516-8.994-17.063-18.018-26.682-25.822c-9.619-7.804-19.987-13.873-31.862-17.395c3.454-2.652,4.389-7.797,2.794-11.849
				c-1.595-4.052-5.298-7.014-9.375-8.544c-4.077-1.53-8.52-1.782-12.874-1.679c-4.354,0.103-8.89,0.33-13.212,0.86
				c-3.815,0.468-7.678,0.948-11.256,2.352c-3.578,1.405-6.9,3.859-8.538,7.336c-1.639,3.477-0.631,7.463,2.179,10.086
				c-13.489,5.406-27.469,10.43-37.814,20.636c-8.784,8.666-18.22,17.359-27.674,25.289c-12.386-7.221-25.217-13.649-37.603-20.87
				c-7.315,9.357-14.631,18.714-21.946,28.071c11.099,10.202,22.431,20.034,33.53,30.236c5.651,5.194,13.02,8.191,20.67,8.821
				c7.649,0.63,15.35-1.003,22.539-3.69s13.939-6.41,20.659-10.118c0.498,10.284,0.673,20.266,1.171,30.55l101.283-1.461
				c0.146-9.552-0.007-18.554,0.14-28.106c8.18,6.031,17.008,11.609,26.933,13.792c9.925,2.184,20.09-0.786,28.294-6.785
				c13.694-10.014,27.436-20.192,41.13-30.206C392.208,301.091,385.792,290.547,379.222,279.669z"/>
			<path style="fill:none;stroke:#270504;stroke-linecap:round;stroke-linejoin:round;stroke-miterlimit:10;" d="M236.225,246.474
				c1.789,1.647,3.577,3.293,5.366,4.94"/>
			<path style="fill:none;stroke:#270504;stroke-linecap:round;stroke-linejoin:round;stroke-miterlimit:10;" d="M263.059,251.227
				c2.04-1.677,4.081-3.353,6.122-5.03"/>
			<path style="fill:none;stroke:#270504;stroke-linecap:round;stroke-linejoin:round;stroke-miterlimit:10;" d="M226.767,256.115
				c2.31-0.887,4.62-1.773,6.93-2.66c5.713,5.121,11.596,9.807,17.308,14.928c6.154-4.832,12.478-9.322,18.632-14.154
				c3.134,1.214,6.421,2.294,9.555,3.507"/>
			<path style="fill:none;stroke:#270504;stroke-linecap:round;stroke-linejoin:round;stroke-miterlimit:10;" d="M199.505,335.167
				c-0.501-12.649-1.002-25.297-1.503-37.946"/>
			<path style="fill:none;stroke:#270504;stroke-linecap:round;stroke-linejoin:round;stroke-miterlimit:10;" d="M302.541,335.161
				c0.568-12.661,1.137-25.323,1.705-37.984"/>
			<path style="fill:none;stroke:#270504;stroke-linecap:round;stroke-linejoin:round;stroke-miterlimit:10;" d="M163.224,300.531
				c-0.869,1.694-1.739,3.389-2.608,5.083"/>
			<path style="fill:none;stroke:#270504;stroke-linecap:round;stroke-linejoin:round;stroke-miterlimit:10;" d="M336.154,300.12
				c0.608,1.338,1.217,2.677,1.825,4.015"/>
			<g>
				<path style="fill:none;stroke:#270504;stroke-linecap:round;stroke-linejoin:round;stroke-miterlimit:10;" d="M113.16,318.031
					c7.715-10.274,15.431-20.549,23.147-30.823"/>
				<path style="fill:none;stroke:#270504;stroke-linecap:round;stroke-linejoin:round;stroke-miterlimit:10;" d="M106.216,305.674
					c3.225,2.737,6.45,5.474,9.675,8.21"/>
				<path style="fill:none;stroke:#270504;stroke-linecap:round;stroke-linejoin:round;stroke-miterlimit:10;" d="M111.037,300.199
					c3.171,2.423,6.343,4.846,9.514,7.269"/>
				<path style="fill:none;stroke:#270504;stroke-linecap:round;stroke-linejoin:round;stroke-miterlimit:10;" d="M113.73,297.044
					c2.962,2.546,5.925,5.093,8.887,7.639"/>
				<path style="fill:none;stroke:#270504;stroke-linecap:round;stroke-linejoin:round;stroke-miterlimit:10;" d="M119.08,290.598
					c3.173,2.207,6.346,4.413,9.519,6.62"/>
				<path style="fill:none;stroke:#270504;stroke-linecap:round;stroke-linejoin:round;stroke-miterlimit:10;" d="M122.963,284.542
					c3.271,2.351,6.541,4.701,9.812,7.052"/>
			</g>
			<g>
				<path style="fill:none;stroke:#270504;stroke-linecap:round;stroke-linejoin:round;stroke-miterlimit:10;" d="M368.367,284.57
					c6.279,11.763,12.557,23.526,18.836,35.29"/>
				<path style="fill:none;stroke:#270504;stroke-linecap:round;stroke-linejoin:round;stroke-miterlimit:10;" d="M370.556,287.798
					c2.809-1.379,5.617-2.757,8.426-4.136"/>
				<path style="fill:none;stroke:#270504;stroke-linecap:round;stroke-linejoin:round;stroke-miterlimit:10;" d="M372.132,291.221
					c2.672-1.377,5.345-2.755,8.017-4.132"/>
				<path style="fill:none;stroke:#270504;stroke-linecap:round;stroke-linejoin:round;stroke-miterlimit:10;" d="M377.234,300.059
					c2.829-1.399,5.658-2.798,8.487-4.198"/>
				<path style="fill:none;stroke:#270504;stroke-linecap:round;stroke-linejoin:round;stroke-miterlimit:10;" d="M378.998,303.676
					c3.215-1.66,6.431-3.32,9.646-4.98"/>
				<path style="fill:none;stroke:#270504;stroke-linecap:round;stroke-linejoin:round;stroke-miterlimit:10;" d="M382.255,310.374
					c3.408-1.702,6.816-3.403,10.223-5.104"/>
				<path style="fill:none;stroke:#270504;stroke-linecap:round;stroke-linejoin:round;stroke-miterlimit:10;" d="M386.074,317.372
					c3.239-2.26,6.478-4.52,9.718-6.78"/>
			</g>
			<g>
				<path style="fill:none;stroke:#270504;stroke-linecap:round;stroke-linejoin:round;stroke-miterlimit:10;" d="M201.224,350.147
					c33.746-1.499,67.492-2.998,101.238-4.497"/>
				<path style="fill:none;stroke:#270504;stroke-linecap:round;stroke-linejoin:round;stroke-miterlimit:10;" d="M205.859,349.992
					c0.409,4.1,0.819,8.2,1.228,12.3"/>
				<path style="fill:none;stroke:#270504;stroke-linecap:round;stroke-linejoin:round;stroke-miterlimit:10;" d="M216.581,349.768
					c0.229,4.138,0.457,8.275,0.686,12.413"/>
				<path style="fill:none;stroke:#270504;stroke-linecap:round;stroke-linejoin:round;stroke-miterlimit:10;" d="M221.571,349.64
					c0.113,4.34,0.227,8.68,0.34,13.02"/>
				<path style="fill:none;stroke:#270504;stroke-linecap:round;stroke-linejoin:round;stroke-miterlimit:10;" d="M234.483,348.908
					c0.26,4.542,0.52,9.083,0.78,13.625"/>
				<path style="fill:none;stroke:#270504;stroke-linecap:round;stroke-linejoin:round;stroke-miterlimit:10;" d="M247.229,348.302
					c0.177,4.706,0.355,9.411,0.532,14.117"/>
				<path style="fill:none;stroke:#270504;stroke-linecap:round;stroke-linejoin:round;stroke-miterlimit:10;" d="M253.542,347.938
					c0.232,4.948,0.464,9.897,0.697,14.846"/>
				<path style="fill:none;stroke:#270504;stroke-linecap:round;stroke-linejoin:round;stroke-miterlimit:10;" d="M263.458,347.696
					c0.124,4.745,0.249,9.49,0.373,14.236"/>
				<path style="fill:none;stroke:#270504;stroke-linecap:round;stroke-linejoin:round;stroke-miterlimit:10;" d="M268.25,347.33
					c0.106,4.866,0.213,9.733,0.319,14.599"/>
				<path style="fill:none;stroke:#270504;stroke-linecap:round;stroke-linejoin:round;stroke-miterlimit:10;" d="M275.658,346.721
					c0.049,5.07,0.097,10.139,0.146,15.209"/>
				<path style="fill:none;stroke:#270504;stroke-linecap:round;stroke-linejoin:round;stroke-miterlimit:10;" d="M289.085,346.72
					c0.31,4.581,0.621,9.163,0.931,13.744"/>
				<path style="fill:none;stroke:#270504;stroke-linecap:round;stroke-linejoin:round;stroke-miterlimit:10;" d="M296.285,345.869
					c-0.019,4.624-0.039,9.247-0.058,13.871"/>
			</g>
		</g>
		<g>
			<g>
				<path style="fill:none;stroke:#270504;stroke-linecap:round;stroke-linejoin:round;stroke-miterlimit:10;" d="M249.184,202.574
					c1.44,0.946,2.639,2.256,3.453,3.775c0.032-1.392,0.737-2.753,1.857-3.581"/>
				<path style="fill:#270504;" d="M276.029,220.263c-0.439-1.222-1.527-2.406-2.82-2.283c0.486-1.855,0.025-3.933-1.198-5.409
					c-1.224-1.477-3.097-2.021-5.011-1.888c-0.3-3.195-2.64-6.106-5.697-7.085c-3.057-0.979-6.719,0.103-8.82,2.529
					c-3.439-2.313-8.012-2.844-11.89-1.382c-3.878,1.462-7.04,4.929-8.096,8.938c-1.493-0.29-3.121,0.266-4.124,1.408
					c-1.004,1.142-1.346,2.828-0.867,4.271c0.479,1.443,2.195,2.706,3.683,3.021c-0.235,0.819,0.024,1.76,0.645,2.344
					c0.62,0.584,1.392,0.857,2.196,0.573c0.339,1.701,0.679,3.401,1.018,5.101c0.495,2.478,2.944,4.083,5.317,4.952
					c2.373,0.87,5.097,0.733,7.37-0.37l21.51-2.387c0.73-2.474,1.661-5.014,2.391-7.488c1.293,0.126,2.654-0.306,3.555-1.242
					C276.092,222.929,276.468,221.485,276.029,220.263z"/>
			</g>
			<g>
				<path style="fill:#FF9A7D;" d="M272.518,231.086c-1.142-2.293-3.713-3.793-6.271-3.66c-0.602,1.22-1.682,2.184-2.284,3.404
					c-0.194-2.593-0.471-5.37-0.666-7.963c-2.451,0.845-5.511-0.257-6.882-2.456c-1.024,1-2.504,1.514-3.927,1.364
					c-1.424-0.15-2.567-0.72-3.36-1.911c-1.068,0.831-2.786,1.128-3.897,0.356c-0.105,1.057-0.663,2.061-1.505,2.708
					c-0.842,0.647-1.832,1.243-2.88,1.072c-0.237,2.399-0.473,4.798-0.71,7.197c-0.749-1.324-1.305-2.299-2.054-3.623
					c-2.559-0.106-5.114,1.42-6.233,3.725c-1.118,2.305-0.737,5.257,0.93,7.201c1.667,1.945,4.526,2.773,6.975,2.019
					c0.179,1.385,0.73,2.605,1.539,3.662c0.009,2.383,0.018,4.766,0.027,7.149c3.507,2.906,6.884,5.615,10.391,8.521l11.474-8.641
					c0.03-2.432,0.112-4.827,0.166-7.242c0.67-1.025,1.15-2.209,1.359-3.578c2.456,0.728,5.306-0.129,6.953-2.091
					C273.31,236.334,273.66,233.379,272.518,231.086z"/>
				<g>
					<path style="fill:none;stroke:#270504;stroke-linecap:round;stroke-linejoin:round;stroke-miterlimit:10;" d="M244.004,231.895
						c0.337,0.728,1.074,1.254,1.872,1.336c0.798,0.081,1.627-0.285,2.104-0.93"/>
					<path style="fill:none;stroke:#270504;stroke-linecap:round;stroke-linejoin:round;stroke-miterlimit:10;" d="M256.333,231.933
						c0.503,0.724,1.422,1.135,2.297,1.029c0.875-0.106,1.668-0.726,1.983-1.55"/>
					<path style="fill:none;stroke:#270504;stroke-linecap:round;stroke-linejoin:round;stroke-miterlimit:10;" d="M252.423,231.498
						c0.056,1.419,0.112,2.837,0.168,4.256c-0.283-0.02-0.566-0.04-0.849-0.06"/>
					<path style="fill:none;stroke:#270504;stroke-linecap:round;stroke-linejoin:round;stroke-miterlimit:10;" d="M249.048,237.609
						c0.024,0.601,0.403,1.176,0.948,1.433c0.544,0.258,1.229,0.187,1.709-0.175"/>
					<path style="fill:none;stroke:#270504;stroke-linecap:round;stroke-linejoin:round;stroke-miterlimit:10;" d="M243.297,225.35
						c0.584-0.912,1.516-1.595,2.562-1.877c1.046-0.282,2.195-0.161,3.159,0.334"/>
					<path style="fill:none;stroke:#270504;stroke-linecap:round;stroke-linejoin:round;stroke-miterlimit:10;" d="M255.148,224.413
						c0.78-0.865,1.995-1.317,3.151-1.174c1.156,0.143,2.223,0.879,2.768,1.909"/>
				</g>
				<path style="fill:none;stroke:#270504;stroke-linecap:round;stroke-linejoin:round;stroke-miterlimit:10;" d="M249.391,219.27
					c-0.077,0.994,0.23,2.012,0.844,2.797c0.614,0.785,1.528,1.329,2.511,1.495"/>
				<g>
					<path style="fill:none;stroke:#270504;stroke-linecap:round;stroke-linejoin:round;stroke-miterlimit:10;" d="M234.761,231.456
						c0.942,0.658,1.883,1.316,2.825,1.973"/>
					<path style="fill:none;stroke:#270504;stroke-linecap:round;stroke-linejoin:round;stroke-miterlimit:10;" d="M238.928,237.435
						c0.224,1.184,0.447,2.369,0.671,3.553"/>
					<path style="fill:none;stroke:#270504;stroke-linecap:round;stroke-linejoin:round;stroke-miterlimit:10;" d="M265.726,236.519
						c-0.263,1.462-0.527,2.924-0.79,4.386"/>
					<path style="fill:none;stroke:#270504;stroke-linecap:round;stroke-linejoin:round;stroke-miterlimit:10;" d="M266.99,233.611
						c1.156-0.517,2.312-1.034,3.467-1.552"/>
					<path style="fill:none;stroke:#270504;stroke-linecap:round;stroke-linejoin:round;stroke-miterlimit:10;" d="M241.165,244.633
						c2.979,2.85,7.127,4.439,11.248,4.309c4.121-0.13,8.16-1.979,10.953-5.011"/>
				</g>
			</g>
		</g>
		<g>
			<g>
				<path style="fill:#DD2120;" d="M194.111,404.193c0,0,27.309-13.122,41.288-19.205l4.283,44.425
					c-11.962,4.321-23.924,8.643-35.886,12.964c-3.666,1.324-8.994,4.11-12.293,6.185c-3.846,2.42-6.263,4.054-10.801,3.829
					C180.764,435.496,185.258,418.584,194.111,404.193z"/>
				<path style="fill:none;stroke:#270504;stroke-linecap:round;stroke-linejoin:round;stroke-miterlimit:10;" d="M211.166,429.564
					c0.809,2.793,1.618,5.586,2.427,8.38"/>
				<path style="fill:none;stroke:#270504;stroke-linecap:round;stroke-linejoin:round;stroke-miterlimit:10;" d="M216.954,426.423
					c0.849,2.921,1.698,5.842,2.547,8.763"/>
				<path style="fill:none;stroke:#270504;stroke-linecap:round;stroke-linejoin:round;stroke-miterlimit:10;" d="M222.996,426.236
					c1.034,2.068,2.069,4.137,3.103,6.205"/>
			</g>
			<g>
				<path style="fill:#270504;" d="M327.656,354.841c9.623-0.976,19.617,3.303,25.553,10.939c5.936,7.636,7.618,18.377,4.299,27.462
					c-3.319,9.085-11.796,15.214-20.988,18.225c-20.378,6.677-83.129,20.04-97.118,23.351l-17.742-45.887
					C248.282,374.925,290.506,358.608,327.656,354.841z"/>
				<path style="fill:none;stroke:#FFFFFF;stroke-linecap:round;stroke-linejoin:round;stroke-miterlimit:10;" d="M253.588,374.015
					c10.811-3.764,21.621-7.528,32.432-11.292"/>
				<path style="fill:none;stroke:#FFFFFF;stroke-linecap:round;stroke-linejoin:round;stroke-miterlimit:10;" d="M341.619,382.318
					c-1.515,2.854-1.351,6.524,0.412,9.232c1.763,2.708,5.053,4.343,8.276,4.113"/>
			</g>
		</g>
		<g>
			<g>
				<path style="fill:#DD2120;" d="M310.9,404.193c0,0-27.309-13.122-41.288-19.205l-4.283,44.425
					c11.962,4.321,23.924,8.643,35.886,12.964c3.665,1.324,8.994,4.11,12.293,6.185c3.846,2.42,6.263,4.054,10.801,3.829
					C324.246,435.496,319.752,418.584,310.9,404.193z"/>
				<path style="fill:none;stroke:#270504;stroke-linecap:round;stroke-linejoin:round;stroke-miterlimit:10;" d="M281.134,419.515
					c-1.409,4.113-2.818,8.225-4.227,12.338"/>
				<path style="fill:none;stroke:#270504;stroke-linecap:round;stroke-linejoin:round;stroke-miterlimit:10;" d="M286.244,420.738
					c-1.011,4.006-2.022,8.012-3.033,12.017"/>
				<path style="fill:none;stroke:#270504;stroke-linecap:round;stroke-linejoin:round;stroke-miterlimit:10;" d="M292.99,422.788
					c-0.933,4.071-1.866,8.143-2.799,12.214"/>
			</g>
			<g>
				<path style="fill:#270504;" d="M177.355,354.841c-9.623-0.976-19.617,3.303-25.553,10.939
					c-5.936,7.636-7.618,18.377-4.299,27.462c3.319,9.085,11.796,15.214,20.988,18.225c20.378,6.677,83.129,20.04,97.118,23.351
					l17.742-45.887C256.729,374.925,214.505,358.608,177.355,354.841z"/>
				<path style="fill:none;stroke:#FFFFFF;stroke-linecap:round;stroke-linejoin:round;stroke-miterlimit:10;" d="M223.589,364.208
					c21.008,5.94,41.337,14.276,60.468,24.794"/>
				<path style="fill:none;stroke:#FFFFFF;stroke-linecap:round;stroke-linejoin:round;stroke-miterlimit:10;" d="M237.225,428.46
					c4.737,1.191,9.473,2.382,14.21,3.572c4.81-16.999,9.738-34.4,14.549-51.399"/>
				<path style="fill:none;stroke:#FFFFFF;stroke-linecap:round;stroke-linejoin:round;stroke-miterlimit:10;" d="M154.965,392.296
					c2.575,0.303,5.272-0.859,6.82-2.939c1.548-2.08,1.886-4.997,0.857-7.376"/>
			</g>
		</g>
	</g>
	<g>
		<g>
			<path style="fill:#FDB913;" d="M180.16,183.466c0-15.307-12.936-27.593-28.472-26.521c-13.266,0.915-23.945,11.773-24.66,25.052
				c-0.317,5.883,1.282,11.375,4.228,15.913c3.681,5.671,6.56,11.825,8.151,18.396l0.734,3.033h26.867l0.635-2.62
				c1.635-6.754,4.579-13.083,8.33-18.932C178.622,193.654,180.16,188.74,180.16,183.466z"/>
			<g>
				<path style="fill:none;stroke:#270504;stroke-width:1.6;stroke-linecap:round;stroke-linejoin:round;stroke-miterlimit:10;" d="
					M148.265,176.524c1.998-3.041,6.215-4.4,9.612-3.096c3.397,1.304,5.622,5.136,5.072,8.732c-0.551,3.597-3.82,6.587-7.452,6.815
					c-1.786,0.112-3.573-0.372-5.356-0.219c-2.971,0.255-5.682,2.447-6.555,5.297c-0.873,2.851,0.147,6.184,2.465,8.059
					c2.319,1.875,5.792,2.174,8.397,0.724c0.195,10.023,0.582,20.038,0.776,30.061"/>
				<path style="fill:none;stroke:#270504;stroke-width:1.6;stroke-linecap:round;stroke-linejoin:round;stroke-miterlimit:10;" d="
					M152.668,170.702c-0.123,7.443-0.245,14.887-0.368,22.331"/>
				<path style="fill:none;stroke:#270504;stroke-width:1.6;stroke-linecap:round;stroke-linejoin:round;stroke-miterlimit:10;" d="
					M155.968,169.333c0.149,8.279,0.298,16.557,0.446,24.836"/>
			</g>
			<path style="fill:none;stroke:#FFFFFF;stroke-linecap:round;stroke-linejoin:round;stroke-miterlimit:10;" d="M151.687,161.412
				c-10.901,0.752-19.675,9.674-20.263,20.585"/>
		</g>
		<g>
			<path style="fill:#3C5BBF;" d="M167.664,232.089c1.652,0,2.99-1.339,2.99-2.99c0-1.652-1.339-2.99-2.99-2.99h-0.657v-2.096h0.657
				c1.652,0,2.99-1.339,2.99-2.99c0-1.652-1.339-2.99-2.99-2.99h-28.18c-1.652,0-2.99,1.339-2.99,2.99c0,1.651,1.339,2.99,2.99,2.99
				h0.657v2.096h-0.657c-1.652,0-2.99,1.339-2.99,2.99c0,1.652,1.339,2.99,2.99,2.99h0.657v2.096h-0.657
				c-1.652,0-2.99,1.339-2.99,2.99c0,1.652,1.339,2.99,2.99,2.99h28.18c1.652,0,2.99-1.339,2.99-2.99c0-1.651-1.339-2.99-2.99-2.99
				h-0.657v-2.096H167.664z"/>
			
				<line style="fill:none;stroke:#FFFFFF;stroke-linecap:round;stroke-linejoin:round;stroke-miterlimit:10;" x1="139.483" y1="224.012" x2="167.007" y2="224.012"/>
			
				<line style="fill:none;stroke:#FFFFFF;stroke-linecap:round;stroke-linejoin:round;stroke-miterlimit:10;" x1="140.14" y1="232.089" x2="167.007" y2="232.089"/>
		</g>
	</g>
	<g>
		<g>
			<path style="fill:#FDB913;" d="M247.202,75.864c0-21.366-18.057-38.515-39.743-37.019c-18.518,1.277-33.424,16.434-34.422,34.969
				c-0.442,8.212,1.79,15.878,5.901,22.212c5.139,7.916,9.156,16.506,11.378,25.679l1.025,4.233h37.502l0.886-3.658
				c2.283-9.427,6.392-18.262,11.628-26.427C245.056,90.085,247.202,83.226,247.202,75.864z"/>
			<path style="fill:none;stroke:#270504;stroke-width:2;stroke-linecap:round;stroke-linejoin:round;stroke-miterlimit:10;" d="
				M214.752,96.195c3.869-0.918,7.304-2.953,9.947-5.747c-1.888-1.41-2.482-4.025-1.275-6.116c1.208-2.093,3.774-2.886,5.94-1.951
				c0.542-1.821,0.838-3.749,0.838-5.746c0-1.997-0.295-3.925-0.838-5.746c-2.166,0.934-4.732,0.142-5.94-1.951
				c-1.207-2.091-0.613-4.706,1.275-6.116c-2.643-2.794-6.078-4.829-9.947-5.748c-0.275,2.342-2.244,4.167-4.66,4.167
				c-2.416,0-4.385-1.824-4.66-4.167c-3.869,0.918-7.304,2.953-9.948,5.748c1.888,1.41,2.482,4.025,1.275,6.116
				c-1.209,2.093-3.774,2.886-5.94,1.951c-0.542,1.821-0.837,3.749-0.837,5.746c0,1.997,0.295,3.925,0.838,5.746
				c2.166-0.934,4.731-0.141,5.94,1.951c1.207,2.091,0.613,4.706-1.275,6.116c2.644,2.794,6.078,4.829,9.947,5.748l3.285,32.429
				h3.817L214.752,96.195z M210.092,84.594c-4.396,0-7.96-3.564-7.96-7.96c0-4.396,3.564-7.96,7.96-7.96
				c4.396,0,7.96,3.564,7.96,7.96C218.052,81.03,214.488,84.594,210.092,84.594z"/>
			<path style="fill:none;stroke:#FFFFFF;stroke-linecap:round;stroke-linejoin:round;stroke-miterlimit:10;" d="M207.329,44.849
				c-14.765,1.018-26.65,13.103-27.446,27.882"/>
		</g>
		<g>
			<path style="fill:#DD2120;" d="M229.76,143.735c2.305,0,4.174-1.869,4.174-4.174s-1.869-4.174-4.174-4.174h-0.917v-2.926h0.917
				c2.305,0,4.174-1.869,4.174-4.174c0-2.305-1.869-4.174-4.174-4.174h-39.336c-2.305,0-4.174,1.869-4.174,4.174
				c0,2.305,1.869,4.174,4.174,4.174h0.917v2.926h-0.917c-2.305,0-4.174,1.869-4.174,4.174s1.869,4.174,4.174,4.174h0.917v2.926
				h-0.917c-2.305,0-4.174,1.869-4.174,4.174c0,2.305,1.869,4.174,4.174,4.174h39.336c2.305,0,4.174-1.869,4.174-4.174
				c0-2.305-1.869-4.174-4.174-4.174h-0.917v-2.926H229.76z"/>
			
				<line style="fill:none;stroke:#FFFFFF;stroke-linecap:round;stroke-linejoin:round;stroke-miterlimit:10;" x1="191.341" y1="132.461" x2="229.047" y2="132.461"/>
			
				<line style="fill:none;stroke:#FFFFFF;stroke-linecap:round;stroke-linejoin:round;stroke-miterlimit:10;" x1="191.341" y1="143.735" x2="229.047" y2="143.735"/>
		</g>
	</g>
	<g>
		<g>
			<path style="fill:#FDB913;" d="M347.946,86.265c0-11.497-9.716-20.725-21.385-19.92c-9.964,0.687-17.985,8.843-18.522,18.816
				c-0.238,4.419,0.963,8.544,3.176,11.952c2.765,4.26,4.927,8.882,6.122,13.818l0.551,2.278h20.18l0.477-1.968
				c1.228-5.073,3.439-9.826,6.257-14.22C346.791,93.917,347.946,90.227,347.946,86.265z"/>
			<path style="fill:none;stroke:#270504;stroke-width:1.6;stroke-linecap:round;stroke-linejoin:round;stroke-miterlimit:10;" d="
				M331.466,94.561c2.036-0.966,3.908-2.369,5.154-4.248c1.246-1.878,1.812-4.263,1.249-6.445c-0.563-2.182-2.353-4.075-4.569-4.489
				c-2.216-0.414-4.996,0.745-5.718,2.881c-1.316-2.114-4.501-2.588-6.593-1.238c-2.092,1.35-3.014,4.116-2.546,6.561
				c0.468,2.445,2.143,4.543,4.205,5.939c1.503,1.018,3.231,1.71,5.028,1.964c0.01,7.24,0.187,14.329,0.197,21.568"/>
			<path style="fill:none;stroke:#FFFFFF;stroke-linecap:round;stroke-linejoin:round;stroke-miterlimit:10;" d="M325.28,71.173
				c-6.814,0.47-12.299,6.047-12.667,12.868"/>
		</g>
		<g>
			<path style="fill:#3C5BBF;" d="M338.561,122.786c1.241,0,2.246-1.006,2.246-2.246c0-1.24-1.006-2.246-2.246-2.246h-0.493v-1.574
				h0.493c1.241,0,2.246-1.006,2.246-2.246c0-1.241-1.006-2.246-2.246-2.246h-21.166c-1.241,0-2.246,1.006-2.246,2.246
				c0,1.24,1.006,2.246,2.246,2.246h0.493v1.574h-0.493c-1.241,0-2.246,1.006-2.246,2.246c0,1.241,1.006,2.246,2.246,2.246h0.493
				v1.574h-0.493c-1.241,0-2.246,1.006-2.246,2.246c0,1.241,1.006,2.246,2.246,2.246h21.166c1.241,0,2.246-1.006,2.246-2.246
				c0-1.24-1.006-2.246-2.246-2.246h-0.493v-1.574H338.561z"/>
			
				<line style="fill:none;stroke:#FFFFFF;stroke-linecap:round;stroke-linejoin:round;stroke-miterlimit:10;" x1="317.888" y1="116.72" x2="338.068" y2="116.72"/>
			
				<line style="fill:none;stroke:#FFFFFF;stroke-linecap:round;stroke-linejoin:round;stroke-miterlimit:10;" x1="338.068" y1="122.786" x2="317.888" y2="122.786"/>
		</g>
	</g>
	<g>
		<g>
			<path style="fill:#FDB913;" d="M393.687,184.909c0-18.782-15.873-33.857-34.936-32.542
				c-16.278,1.123-29.381,14.446-30.259,30.739c-0.389,7.219,1.573,13.957,5.188,19.525c4.517,6.959,8.049,14.509,10.001,22.573
				l0.901,3.721h32.966l0.779-3.215c2.007-8.287,5.619-16.053,10.221-23.23C391.801,197.41,393.687,191.381,393.687,184.909z"/>
			<g>
				<g>
					<path style="fill:none;stroke:#270504;stroke-width:2;stroke-linecap:round;stroke-linejoin:round;stroke-miterlimit:10;" d="
						M376.317,183.276c0.401,4.149-0.988,8.439-4.166,11.617c-3.178,3.178-7.467,4.566-11.617,4.166v29.244"/>
					<path style="fill:none;stroke:#270504;stroke-width:2;stroke-linecap:round;stroke-linejoin:round;stroke-miterlimit:10;" d="
						M375.09,178.69c-0.698-1.535-1.676-2.974-2.938-4.237c-5.072-5.072-12.975-5.583-18.621-1.539"/>
					<path style="fill:none;stroke:#270504;stroke-width:2;stroke-linecap:round;stroke-linejoin:round;stroke-miterlimit:10;" d="
						M350.173,176.271c-4.044,5.646-3.533,13.549,1.539,18.621c1.263,1.263,2.701,2.24,4.237,2.938"/>
				</g>
				
					<polyline style="fill:none;stroke:#270504;stroke-width:2;stroke-linecap:round;stroke-linejoin:round;stroke-miterlimit:10;" points="
					353.44,190.4 355.949,197.831 348.158,197.262 				"/>
				
					<polyline style="fill:none;stroke:#270504;stroke-width:2;stroke-linecap:round;stroke-linejoin:round;stroke-miterlimit:10;" points="
					361.01,174.697 353.53,172.914 357.435,166.677 				"/>
				
					<polyline style="fill:none;stroke:#270504;stroke-width:2;stroke-linecap:round;stroke-linejoin:round;stroke-miterlimit:10;" points="
					371.869,189.397 376.224,183.06 380.638,188.947 				"/>
			</g>
			<path style="fill:none;stroke:#FFFFFF;stroke-linecap:round;stroke-linejoin:round;stroke-miterlimit:10;" d="M358.306,157.179
				c-13.422,0.926-24.227,11.911-24.95,25.346"/>
		</g>
		<g>
			<path style="fill:#270504;" d="M378.355,244.571c2.026,0,3.669-1.643,3.669-3.669c0-2.027-1.643-3.669-3.669-3.669h-0.806v-2.572
				h0.806c2.026,0,3.669-1.643,3.669-3.669c0-2.027-1.643-3.669-3.669-3.669h-34.578c-2.026,0-3.669,1.643-3.669,3.669
				c0,2.026,1.643,3.669,3.669,3.669h0.806v2.572h-0.806c-2.026,0-3.669,1.643-3.669,3.669c0,2.026,1.643,3.669,3.669,3.669h0.806
				v2.572h-0.806c-2.026,0-3.669,1.643-3.669,3.669s1.643,3.669,3.669,3.669h34.578c2.026,0,3.669-1.643,3.669-3.669
				s-1.643-3.669-3.669-3.669h-0.806v-2.572H378.355z"/>
			
				<line style="fill:none;stroke:#FFFFFF;stroke-linecap:round;stroke-linejoin:round;stroke-miterlimit:10;" x1="344.583" y1="234.66" x2="377.549" y2="234.66"/>
			
				<line style="fill:none;stroke:#FFFFFF;stroke-linecap:round;stroke-linejoin:round;stroke-miterlimit:10;" x1="377.549" y1="244.571" x2="344.583" y2="244.571"/>
		</g>
	</g>
</g>
</svg>
