<?xml version="1.0" encoding="utf-8"?>
<!-- Generator: Adobe Illustrator 27.5.0, SVG Export Plug-In . SVG Version: 6.00 Build 0)  -->
<svg version="1.1" xmlns="http://www.w3.org/2000/svg" xmlns:xlink="http://www.w3.org/1999/xlink" x="0px" y="0px"
	 viewBox="0 0 500 500" style="enable-background:new 0 0 500 500;" xml:space="preserve">
<g id="BACKGROUND">
	<rect style="fill:#072028;" width="500" height="500"/>
</g>
<g id="OBJECTS">
	<g>
		<g>
			<linearGradient id="SVGID_1_" gradientUnits="userSpaceOnUse" x1="259.6563" y1="103.4589" x2="250.5596" y2="405.9149">
				<stop  offset="0" style="stop-color:#1C4259"/>
				<stop  offset="1" style="stop-color:#0B2935"/>
			</linearGradient>
			<path style="fill:url(#SVGID_1_);" d="M451.03,244.502c-1.639,16.662-5.719,33.052-11.727,48.646
				c-4.469,11.603-9.999,22.77-16.379,33.27c-1.468,2.411-2.983,4.793-4.54,7.14c-2.423,3.65-4.952,7.211-7.576,10.665
				c-6.586,8.696-13.761,16.75-21.372,24.008c-6.816,6.497-13.973,12.346-21.372,17.44c-4.18,2.877-2.164,9.416,2.913,9.416h2.341
				c0.313,0,0.619,0.018,0.92,0.053c4.481,0.472,7.942,4.363,7.723,9.021c-0.218,4.652-4.227,8.236-8.891,8.236H127.101
				c-4.923,0-8.879-4.103-8.649-9.074c0.112-2.323,1.173-4.386,2.783-5.86c1.61-1.48,3.779-2.376,6.108-2.376
				c4.929,0,7.051-6.244,3.148-9.251c-16.444-12.682-43.93-38.688-59.406-79.824c-7.617-20.24-12.328-44.142-11.391-71.923
				C63.485,122.07,170.2,60.671,294.602,81.896S458.423,169.49,451.03,244.502z"/>
			<path style="opacity:0.08;" d="M389.436,368.232c-5.465,10.306-10.801,19.562-15.199,26.909
				c-6.362,10.63-10.76,17.257-10.76,17.257H127.101c-4.923,0-8.879-4.103-8.649-9.074c0.112-2.323,1.173-4.386,2.783-5.86
				c1.61-1.48,3.779-2.376,6.108-2.376c4.929,0,7.051-6.244,3.148-9.251c-2.329-1.798-4.876-3.856-7.582-6.197
				c-5.177-4.463-10.925-9.929-16.791-16.432c-4.168-4.622-8.396-9.764-12.511-15.447h-0.006
				c-8.431-11.632-16.408-25.511-22.516-41.748c18.59,18.69,45.887,38.14,80.337,40.434
				c68.221,4.551,196.137-122.221,251.852-100.058C438.76,260.51,412.895,324.002,389.436,368.232z"/>
			<g>
				<g>
					
						<rect x="138.629" y="308.661" transform="matrix(-1 -1.224647e-16 1.224647e-16 -1 298.8583 625.4073)" style="opacity:0.25;" width="21.601" height="8.086"/>
					
						<rect x="114.426" y="308.661" transform="matrix(-1 -1.224647e-16 1.224647e-16 -1 250.452 625.4073)" style="opacity:0.25;" width="21.601" height="8.086"/>
				</g>
				<g>
					
						<rect x="126.527" y="320.044" transform="matrix(-1 -1.224647e-16 1.224647e-16 -1 274.6552 648.1738)" style="opacity:0.25;fill:#FFFFFF;" width="21.601" height="8.086"/>
					
						<rect x="102.324" y="320.044" transform="matrix(-1 -1.224647e-16 1.224647e-16 -1 226.2489 648.1738)" style="opacity:0.25;fill:#FFFFFF;" width="21.601" height="8.086"/>
				</g>
			</g>
			<g>
				<g>
					<rect x="287.011" y="107.915" style="opacity:0.25;" width="21.601" height="8.086"/>
					<rect x="311.214" y="107.915" style="opacity:0.25;" width="21.601" height="8.086"/>
				</g>
				<g>
					<rect x="299.112" y="119.298" style="opacity:0.25;fill:#FFFFFF;" width="21.601" height="8.086"/>
					<rect x="323.316" y="119.298" style="opacity:0.25;fill:#FFFFFF;" width="21.601" height="8.086"/>
				</g>
			</g>
		</g>
		<g>
			
				<radialGradient id="SVGID_00000069361268411155387920000006341149444563297188_" cx="95.1963" cy="108.6362" r="45.3286" gradientTransform="matrix(0.9183 -0.3959 0.3472 0.8053 -15.3147 190.2274)" gradientUnits="userSpaceOnUse">
				<stop  offset="0" style="stop-color:#3E84FF"/>
				<stop  offset="0.3286" style="stop-color:#5469FF;stop-opacity:0.6714"/>
				<stop  offset="0.7569" style="stop-color:#6B4BFF;stop-opacity:0.2431"/>
				<stop  offset="1" style="stop-color:#7440FF;stop-opacity:0"/>
			</radialGradient>
			<path style="fill:url(#SVGID_00000069361268411155387920000006341149444563297188_);" d="M160.073,218.363
				c10.67,24.752-3.18,54.517-30.934,66.481c-27.755,11.964-58.904,1.598-69.574-23.154s3.18-54.517,30.934-66.481
				S149.403,193.611,160.073,218.363z"/>
			
				<linearGradient id="SVGID_00000049901604772791393300000006930393671982065551_" gradientUnits="userSpaceOnUse" x1="76.8205" y1="115.4086" x2="112.4494" y2="408.778">
				<stop  offset="0" style="stop-color:#3E84FF"/>
				<stop  offset="1" style="stop-color:#7440FF"/>
			</linearGradient>
			<path style="fill:url(#SVGID_00000049901604772791393300000006930393671982065551_);" d="M135.218,183.706v65.933
				c0,2.382-1.934,4.316-4.316,4.316H47.329c-2.382,0-4.31-1.934-4.31-4.316v-65.933c0-2.376,1.928-4.31,4.31-4.31h83.573
				C133.285,179.396,135.218,181.33,135.218,183.706z"/>
			<path style="fill:#002A66;" d="M82.008,190.81H50.915c-0.907,0-1.642-0.735-1.642-1.642l0,0c0-0.907,0.735-1.642,1.642-1.642
				h31.093c0.907,0,1.642,0.735,1.642,1.642l0,0C83.65,190.075,82.915,190.81,82.008,190.81z"/>
			<path style="fill:#EEF8FF;" d="M82.008,201.928H50.915c-0.907,0-1.642-0.735-1.642-1.642l0,0c0-0.907,0.735-1.642,1.642-1.642
				h31.093c0.907,0,1.642,0.735,1.642,1.642l0,0C83.65,201.193,82.915,201.928,82.008,201.928z"/>
			<path style="fill:#002A66;" d="M92.417,213.046H50.915c-0.907,0-1.642-0.735-1.642-1.642l0,0c0-0.907,0.735-1.642,1.642-1.642
				h41.502c0.907,0,1.642,0.735,1.642,1.642l0,0C94.059,212.311,93.324,213.046,92.417,213.046z"/>
			<path style="fill:#002A66;" d="M92.417,244.19H50.915c-0.907,0-1.642-0.735-1.642-1.642l0,0c0-0.907,0.735-1.642,1.642-1.642
				h41.502c0.907,0,1.642,0.735,1.642,1.642l0,0C94.059,243.454,93.324,244.19,92.417,244.19z"/>
			<path style="fill:#EEF8FF;" d="M122.612,244.19h-20.936c-0.907,0-1.642-0.735-1.642-1.642l0,0c0-0.907,0.735-1.642,1.642-1.642
				h20.936c0.907,0,1.642,0.735,1.642,1.642l0,0C124.255,243.454,123.519,244.19,122.612,244.19z"/>
			<g>
				<path style="fill:#FFFFFF;" d="M73.02,220.544v4.732c0,0.379,0.307,0.686,0.686,0.686h2.619c0.379,0,0.686-0.307,0.686-0.686
					v-4.732c0-0.379,0.307-0.686,0.686-0.686h0.253c0.379,0,0.686,0.307,0.686,0.686v12.863c0,0.379-0.307,0.686-0.686,0.686h-0.253
					c-0.379,0-0.686-0.307-0.686-0.686v-5.281c0-0.379-0.307-0.686-0.686-0.686h-2.619c-0.379,0-0.686,0.307-0.686,0.686v5.281
					c0,0.379-0.307,0.686-0.686,0.686h-0.254c-0.379,0-0.686-0.307-0.686-0.686v-12.863c0-0.379,0.307-0.686,0.686-0.686h0.254
					C72.712,219.858,73.02,220.165,73.02,220.544z"/>
				<path style="fill:#FFFFFF;" d="M82.151,221.315h-1.225c-0.379,0-0.686-0.307-0.686-0.686v-0.085
					c0-0.379,0.307-0.686,0.686-0.686h5.449c0.379,0,0.686,0.307,0.686,0.686v0.085c0,0.379-0.307,0.686-0.686,0.686H85.15
					c-0.379,0-0.686,0.307-0.686,0.686v11.405c0,0.379-0.307,0.686-0.686,0.686h-0.254c-0.379,0-0.686-0.307-0.686-0.686v-11.405
					C82.837,221.623,82.53,221.315,82.151,221.315z"/>
				<path style="fill:#FFFFFF;" d="M97.176,227.968c-0.106-1.88-0.212-3.971-0.148-5.576h-0.084
					c-0.318,1.584-0.697,3.273-1.141,4.942l-1.753,6.674h-1.035l-1.668-6.4c-0.465-1.816-0.886-3.569-1.161-5.216h-0.063
					c0,1.668-0.085,3.654-0.169,5.682l-0.245,5.364c-0.017,0.367-0.319,0.655-0.686,0.655h-0.074c-0.395,0-0.709-0.333-0.685-0.727
					l0.763-12.863c0.021-0.363,0.322-0.646,0.685-0.646h0.574c0.313,0,0.587,0.212,0.665,0.516l1.537,5.99
					c0.486,1.88,0.845,3.273,1.14,4.9h0.063c0.275-1.627,0.591-2.978,1.056-4.9l1.476-5.983c0.076-0.307,0.351-0.522,0.666-0.522
					h0.631c0.364,0,0.664,0.284,0.685,0.647l0.744,12.863c0.023,0.394-0.29,0.726-0.685,0.726h-0.14
					c-0.366,0-0.668-0.287-0.685-0.653L97.176,227.968z"/>
				<path style="fill:#FFFFFF;" d="M101.892,219.858h0.254c0.379,0,0.686,0.307,0.686,0.686v11.49c0,0.379,0.307,0.686,0.686,0.686
					h2.64c0.379,0,0.686,0.307,0.686,0.686l0,0c0,0.379-0.307,0.686-0.686,0.686h-4.266c-0.379,0-0.686-0.307-0.686-0.686v-12.863
					C101.205,220.165,101.513,219.858,101.892,219.858z"/>
			</g>
			
				<radialGradient id="SVGID_00000127042871491044990760000001908714350806268044_" cx="122.427" cy="242.5473" r="8.8144" gradientUnits="userSpaceOnUse">
				<stop  offset="0" style="stop-color:#FFFFFF"/>
				<stop  offset="1" style="stop-color:#000000"/>
			</radialGradient>
			<circle style="fill:url(#SVGID_00000127042871491044990760000001908714350806268044_);" cx="122.427" cy="242.547" r="8.814"/>
		</g>
		<g>
			<path style="opacity:0.25;" d="M135.218,183.706v29.12h-47.19c-1.993,0-3.608-1.616-3.608-3.608v-29.821h46.483
				C133.285,179.396,135.218,181.33,135.218,183.706z"/>
			
				<linearGradient id="SVGID_00000045597002642256505680000016632860070117934756_" gradientUnits="userSpaceOnUse" x1="171.2527" y1="70.1461" x2="171.2527" y2="182.1453">
				<stop  offset="0" style="stop-color:#3E84FF"/>
				<stop  offset="1" style="stop-color:#7440FF"/>
			</linearGradient>
			<path style="fill:url(#SVGID_00000045597002642256505680000016632860070117934756_);" d="M251.983,106.911H90.522v-3.537
				c0-1.675,1.358-3.032,3.032-3.032h155.397c1.675,0,3.032,1.357,3.032,3.032V106.911z"/>
			<path style="opacity:0.86;fill:#B3B3FF;" d="M248.38,206.724H94.125c-1.99,0-3.603-1.613-3.603-3.603v-96.21h161.461v96.21
				C251.983,205.11,250.37,206.724,248.38,206.724z"/>
			<g>
				<path style="fill:#EEF8FF;" d="M245.039,103.626c0,0.63-0.511,1.141-1.141,1.141c-0.63,0-1.141-0.511-1.141-1.141
					c0-0.63,0.511-1.141,1.141-1.141C244.528,102.484,245.039,102.995,245.039,103.626z"/>
				<path style="fill:#EEF8FF;" d="M238.069,103.626c0,0.63-0.511,1.141-1.141,1.141c-0.63,0-1.141-0.511-1.141-1.141
					c0-0.63,0.511-1.141,1.141-1.141C237.558,102.484,238.069,102.995,238.069,103.626z"/>
				<path style="fill:#EEF8FF;" d="M231.098,103.626c0,0.63-0.511,1.141-1.141,1.141c-0.63,0-1.141-0.511-1.141-1.141
					c0-0.63,0.511-1.141,1.141-1.141C230.587,102.484,231.098,102.995,231.098,103.626z"/>
			</g>
			<path style="fill:#FFFFFF;" d="M189.446,119.292H106.82c-0.907,0-1.642-0.735-1.642-1.642l0,0c0-0.907,0.735-1.642,1.642-1.642
				h82.626c0.907,0,1.642,0.735,1.642,1.642l0,0C191.088,118.557,190.353,119.292,189.446,119.292z"/>
			<path style="fill:#FFFFFF;" d="M189.446,129.652H106.82c-0.907,0-1.642-0.735-1.642-1.643l0,0c0-0.907,0.735-1.642,1.642-1.642
				h82.626c0.907,0,1.642,0.735,1.642,1.642l0,0C191.088,128.916,190.353,129.652,189.446,129.652z"/>
			<path style="fill:#002A66;" d="M144.848,140.012H106.82c-0.907,0-1.642-0.735-1.642-1.642v0c0-0.907,0.735-1.642,1.642-1.642
				h38.028c0.907,0,1.642,0.735,1.642,1.642v0C146.49,139.276,145.755,140.012,144.848,140.012z"/>
			<path style="fill:#002A66;" d="M189.446,181.04H106.82c-0.907,0-1.642-0.735-1.642-1.642l0,0c0-0.907,0.735-1.642,1.642-1.642
				h82.626c0.907,0,1.642,0.735,1.642,1.642l0,0C191.088,180.305,190.353,181.04,189.446,181.04z"/>
			<path style="fill:#002A66;" d="M144.848,191.4H106.82c-0.907,0-1.642-0.735-1.642-1.642l0,0c0-0.907,0.735-1.642,1.642-1.642
				h38.028c0.907,0,1.642,0.735,1.642,1.642l0,0C146.49,190.665,145.755,191.4,144.848,191.4z"/>
			<g>
				<path style="fill:#002A66;" d="M223.015,126.12c-7.66,0-13.891,6.232-13.891,13.892c0,7.66,6.232,13.892,13.891,13.892
					c7.66,0,13.892-6.232,13.892-13.892C236.907,132.352,230.675,126.12,223.015,126.12z M223.015,151.545
					c-6.359,0-11.533-5.174-11.533-11.533c0-6.36,5.174-11.533,11.533-11.533c6.36,0,11.534,5.174,11.534,11.533
					C234.549,146.371,229.375,151.545,223.015,151.545z"/>
				<path style="fill:#002A66;" d="M228.782,143.145c-3.18,3.179-8.354,3.18-11.533,0c-0.326-0.325-0.853-0.325-1.179,0
					c-0.326,0.326-0.326,0.854,0,1.179c1.915,1.915,4.43,2.872,6.946,2.872c2.515,0,5.031-0.958,6.946-2.872
					c0.326-0.326,0.326-0.854,0-1.179C229.635,142.82,229.108,142.82,228.782,143.145z"/>
				<path style="fill:#002A66;" d="M218.025,139.251c0.768,0,1.39-0.622,1.39-1.39c0-0.768-0.622-1.39-1.39-1.39
					s-1.39,0.622-1.39,1.39C216.635,138.629,217.257,139.251,218.025,139.251z"/>
				<path style="fill:#002A66;" d="M228.006,139.251c0.767,0,1.39-0.622,1.39-1.39c0-0.768-0.622-1.39-1.39-1.39
					c-0.768,0-1.39,0.622-1.39,1.39C226.616,138.629,227.238,139.251,228.006,139.251z"/>
			</g>
			<g>
				<g>
					<g>
						
							<linearGradient id="SVGID_00000069371204154159762450000009644070219231329213_" gradientUnits="userSpaceOnUse" x1="134.9569" y1="129.3239" x2="93.265" y2="187.44">
							<stop  offset="0" style="stop-color:#3E84FF"/>
							<stop  offset="1" style="stop-color:#7440FF"/>
						</linearGradient>
						<path style="fill:url(#SVGID_00000069371204154159762450000009644070219231329213_);" d="M112.64,169.408
							c-0.346,0-0.693-0.141-0.957-0.424l-6.109-6.539c-0.529-0.566-0.529-1.483,0-2.048l6.213-6.648
							c0.529-0.566,1.385-0.566,1.914,0c0.529,0.565,0.529,1.483,0,2.048l-5.256,5.624l5.153,5.515c0.529,0.566,0.529,1.483,0,2.048
							C113.333,169.266,112.986,169.408,112.64,169.408z"/>
					</g>
					<g>
						
							<linearGradient id="SVGID_00000111885835987869989120000005946527858637466540_" gradientUnits="userSpaceOnUse" x1="148.7562" y1="139.2233" x2="107.0643" y2="197.3394">
							<stop  offset="0" style="stop-color:#3E84FF"/>
							<stop  offset="1" style="stop-color:#7440FF"/>
						</linearGradient>
						<path style="fill:url(#SVGID_00000111885835987869989120000005946527858637466540_);" d="M132.213,169.408
							c-0.346,0-0.692-0.141-0.957-0.424c-0.529-0.565-0.529-1.483,0-2.048l5.154-5.515l-5.257-5.624
							c-0.529-0.565-0.529-1.482,0-2.048c0.529-0.566,1.385-0.566,1.914,0l6.214,6.648c0.254,0.272,0.396,0.64,0.396,1.024
							s-0.143,0.752-0.396,1.024l-6.11,6.539C132.906,169.266,132.559,169.408,132.213,169.408z"/>
					</g>
				</g>
				<g>
					
						<linearGradient id="SVGID_00000095301284598328725730000004331296403281740726_" gradientUnits="userSpaceOnUse" x1="142.0586" y1="134.4187" x2="100.3667" y2="192.5348">
						<stop  offset="0" style="stop-color:#3E84FF"/>
						<stop  offset="1" style="stop-color:#7440FF"/>
					</linearGradient>
					<path style="fill:url(#SVGID_00000095301284598328725730000004331296403281740726_);" d="M119.394,171.204
						c-0.169,0-0.342-0.034-0.509-0.107c-0.693-0.301-1.025-1.146-0.744-1.887l6.064-15.943c0.282-0.739,1.067-1.099,1.764-0.795
						c0.693,0.301,1.025,1.146,0.744,1.887l-6.064,15.943C120.434,170.863,119.929,171.204,119.394,171.204z"/>
				</g>
			</g>
			<g>
				<path style="fill:#002A66;" d="M244.475,165.358h-42.919c-2.143,0-3.887-1.744-3.887-3.887v-42.919
					c0-2.143,1.744-3.887,3.887-3.887h42.919c2.143,0,3.887,1.744,3.887,3.887v42.919
					C248.362,163.614,246.618,165.358,244.475,165.358z M201.556,117.023c-0.843,0-1.529,0.686-1.529,1.529v42.919
					c0,0.843,0.686,1.529,1.529,1.529h42.919c0.843,0,1.529-0.686,1.529-1.529v-42.919c0-0.843-0.686-1.529-1.529-1.529H201.556z"/>
			</g>
			
				<linearGradient id="SVGID_00000088102613113723423310000002828241485985086336_" gradientUnits="userSpaceOnUse" x1="162.4358" y1="153.9032" x2="182.0052" y2="153.9032">
				<stop  offset="0" style="stop-color:#3E84FF"/>
				<stop  offset="1" style="stop-color:#7440FF"/>
			</linearGradient>
			<path style="fill:url(#SVGID_00000088102613113723423310000002828241485985086336_);" d="M182.005,154.57v-1.333
				c0-0.505-0.41-0.915-0.915-0.915h-2.178c-0.172-0.728-0.46-1.41-0.844-2.029l1.543-1.543c0.357-0.357,0.357-0.937,0-1.294
				l-0.943-0.943c-0.357-0.357-0.937-0.357-1.294,0l-1.543,1.543c-0.619-0.383-1.301-0.671-2.029-0.844v-2.178
				c0-0.505-0.41-0.915-0.915-0.915h-1.333c-0.505,0-0.915,0.41-0.915,0.915v2.178c-0.728,0.172-1.41,0.46-2.029,0.844l-1.543-1.543
				c-0.357-0.357-0.937-0.357-1.294,0l-0.943,0.943c-0.357,0.357-0.357,0.937,0,1.294l1.543,1.543
				c-0.383,0.619-0.672,1.301-0.844,2.029h-2.178c-0.505,0-0.915,0.41-0.915,0.915v1.333c0,0.505,0.41,0.915,0.915,0.915h2.178
				c0.172,0.728,0.46,1.41,0.844,2.029l-1.543,1.543c-0.357,0.357-0.357,0.937,0,1.294l0.943,0.943c0.357,0.357,0.937,0.357,1.294,0
				l1.543-1.543c0.619,0.383,1.301,0.671,2.029,0.844v2.178c0,0.505,0.41,0.915,0.915,0.915h1.333c0.505,0,0.915-0.41,0.915-0.915
				v-2.178c0.728-0.172,1.41-0.46,2.029-0.844l1.543,1.543c0.357,0.357,0.937,0.357,1.294,0l0.943-0.943
				c0.357-0.357,0.357-0.937,0-1.294l-1.543-1.543c0.383-0.619,0.671-1.301,0.844-2.029h2.178
				C181.595,155.485,182.005,155.075,182.005,154.57z M172.861,157.624c-2.579,0.427-4.788-1.782-4.362-4.361
				c0.258-1.562,1.518-2.823,3.081-3.081c2.579-0.426,4.787,1.782,4.361,4.361C175.683,156.105,174.423,157.366,172.861,157.624z"/>
		</g>
		<g>
			<g>
				
					<linearGradient id="SVGID_00000070106968840284159590000007045985440373363104_" gradientUnits="userSpaceOnUse" x1="345.3733" y1="393.5054" x2="344.5327" y2="373.3313">
					<stop  offset="0" style="stop-color:#3E84FF"/>
					<stop  offset="1" style="stop-color:#7440FF"/>
				</linearGradient>
				<path style="fill:url(#SVGID_00000070106968840284159590000007045985440373363104_);" d="M330.5,392.69l24.763-1.391
					c0,0,9.858-0.124,1.268-5.177c-1.515-0.89-2.859-1.887-4.056-2.918c-3.891-3.378-6.155-7.187-7.175-9.191l-4.864,1.279
					l-8.502,2.24c-0.077,0.018-0.147,0.035-0.224,0.047C331.095,382.626,330.5,392.69,330.5,392.69z"/>
				<path style="fill:#010D19;" d="M363.477,395.09c0,0-0.502-8.209-6.947-8.968s-7.184,5.509-7.184,5.509l-18.846-1.057
					l-0.503,4.516H363.477z"/>
				<path style="fill:#010D19;" d="M340.434,375.291c0.755,2.458,2.871,8.036,6.869,9.693c1.94-1.551,3.927-1.816,5.171-1.781
					c-3.891-3.378-6.155-7.187-7.175-9.191L340.434,375.291z"/>
			</g>
			
				<linearGradient id="SVGID_00000074436849389487180480000005309361915422801593_" gradientUnits="userSpaceOnUse" x1="322.356" y1="259.421" x2="316.6707" y2="353.4164">
				<stop  offset="0" style="stop-color:#2B2B2B"/>
				<stop  offset="1" style="stop-color:#111111"/>
			</linearGradient>
			<path style="fill:url(#SVGID_00000074436849389487180480000005309361915422801593_);" d="M346.077,372.16l-16.579,1.769
				c0,0-6.509-51.989-12.375-73.468c-1.893,4.434-5.707,20.435-9.268,36.377c-4.151,18.613-7.959,37.156-7.959,37.156
				s-9.504,1.067-14.81-3.231c1.633-29.656,13.118-88.85,14.622-97.511c0.012,0.071,0.029,0.141,0.047,0.212
				c0.106,0.395,0.224,0.719,0.366,0.973c0.077,0.136,0.183,0.277,0.313,0.419c0,0,0.006,0.006,0.018,0.023
				c1.374,1.504,5.495,3.154,11.249,3.337c6.197,0.194,14.292-1.315,22.911-6.562c0.201-0.401,0.224-1.356,0.112-2.73
				c0.289,0.283,0.843,3.767,1.551,9.298C339.52,303.616,346.077,372.16,346.077,372.16z"/>
			
				<linearGradient id="SVGID_00000047053118287084464460000005087468946794198916_" gradientUnits="userSpaceOnUse" x1="288.7767" y1="259.3939" x2="296.6098" y2="227.5565">
				<stop  offset="0" style="stop-color:#3E84FF"/>
				<stop  offset="1" style="stop-color:#7440FF"/>
			</linearGradient>
			<path style="fill:url(#SVGID_00000047053118287084464460000005087468946794198916_);" d="M299.517,242.977l-1.161,4.528
				l-0.083,0.313l-0.277,1.073v0.006c0,0-2.14,0.159-4.982-0.755c-1.356-0.436-2.877-1.114-4.398-2.17
				c-0.377-0.265-0.755-0.548-1.132-0.861c0.525-6.114,2.518-16.897,3.166-20.329c0.13-0.69,0.206-1.079,0.206-1.079
				L299.517,242.977z"/>
			
				<linearGradient id="SVGID_00000139274034138923226460000013587617354790560165_" gradientUnits="userSpaceOnUse" x1="295.393" y1="241.5576" x2="283.454" y2="275.6692">
				<stop  offset="0" style="stop-color:#F78B7C"/>
				<stop  offset="1" style="stop-color:#FFB7A9"/>
			</linearGradient>
			<path style="fill:url(#SVGID_00000139274034138923226460000013587617354790560165_);" d="M299.895,248.283
				c0,0-1.238,5.471-2.818,10.53c-1.126,3.573-2.417,6.945-3.573,8.042c-2.801,2.653-9.999,7.01-9.999,7.01l-4.168-8.62l6.161-5.401
				l2.423-10.789l0.696-3.083c4.705,3.266,9.38,2.924,9.38,2.924l0.277-1.079L299.895,248.283z"/>
			
				<linearGradient id="SVGID_00000042715709473241011100000008836807196913025694_" gradientUnits="userSpaceOnUse" x1="302.1845" y1="202.7195" x2="318.356" y2="267.9106">
				<stop  offset="0" style="stop-color:#3E84FF"/>
				<stop  offset="1" style="stop-color:#7440FF"/>
			</linearGradient>
			<path style="fill:url(#SVGID_00000042715709473241011100000008836807196913025694_);" d="M334.609,271.654
				c-8.62,5.247-16.715,6.757-22.911,6.562c-5.784-0.183-9.917-1.851-11.267-3.361c-0.13-0.142-0.236-0.283-0.313-0.419
				c-0.141-0.254-0.259-0.578-0.366-0.973c-0.018-0.071-0.035-0.142-0.047-0.212c-0.448-1.91-0.519-5.129-0.495-8.525
				c0-0.519,0.006-1.038,0.012-1.562c0.018-1.409,0.041-2.824,0.053-4.156v-0.018c0.018-1.769,0.012-3.39-0.071-4.693
				c-0.029-0.578-0.077-1.091-0.142-1.521c-0.03-0.159-0.053-0.313-0.082-0.448c-0.012-0.047-0.024-0.1-0.035-0.153
				c-0.171-0.755-0.501-1.887-0.949-3.278v-0.006c-0.401-1.279-0.902-2.771-1.439-4.387c-0.159-0.472-0.318-0.955-0.483-1.45
				c-0.489-1.468-1.008-3.019-1.521-4.575c-0.401-1.22-0.802-2.447-1.185-3.65c-0.153-0.489-0.306-0.973-0.454-1.45
				c-1.014-3.272-1.857-6.267-2.223-8.343c-0.012-0.088-0.029-0.171-0.041-0.253c-0.035-0.224-0.065-0.43-0.089-0.631
				c0.094-0.147,0.195-0.301,0.295-0.448c0.071-0.106,0.142-0.212,0.212-0.313c1.839-2.635,4.351-4.982,6.609-6.798
				c0.648-0.519,1.279-0.996,1.863-1.421c0.472-0.348,0.914-0.66,1.321-0.937l0.041-0.024l2.659-1.515
				c3.007-0.501,5.813-0.696,8.342-0.708c3.455-0.018,6.385,0.312,8.584,0.678c2.783,0.466,4.392,1.002,4.392,1.002l0.135,1.722
				l0.124,1.527l0.702,8.696l0.124,1.527l0.053,0.678c0,0,0,0.006,0.006,0.024c0.077,0.307,0.843,3.349,1.887,7.706
				c0.118,0.478,0.236,0.973,0.36,1.48c0.607,2.529,1.279,5.406,1.969,8.402c0.106,0.489,0.218,0.979,0.33,1.474
				c0.637,2.806,1.268,5.684,1.84,8.437c0.1,0.501,0.201,0.996,0.307,1.486c0.637,3.143,1.179,6.079,1.551,8.502
				c0.083,0.525,0.153,1.032,0.218,1.504c0.106,0.772,0.183,1.474,0.236,2.093C334.833,270.298,334.81,271.253,334.609,271.654z"/>
			<g style="opacity:0.35;">
				<path style="opacity:0.25;" d="M325.141,216.917l-34.449,8.118c-0.012-0.088-0.029-0.171-0.041-0.253
					c-0.035-0.224-0.065-0.43-0.089-0.631c0.094-0.147,0.195-0.301,0.295-0.448c0.071-0.106,0.142-0.212,0.212-0.313l33.948-8.001
					L325.141,216.917z"/>
				<path style="opacity:0.25;" d="M325.966,227.141l-32.598,7.688c-0.153-0.489-0.306-0.973-0.454-1.45l32.928-7.765
					L325.966,227.141z"/>
				<path style="opacity:0.25;" d="M328.271,237.028l-31.714,7.476c-0.159-0.472-0.318-0.955-0.483-1.45l31.837-7.505
					C328.03,236.026,328.147,236.521,328.271,237.028z"/>
				<path style="opacity:0.25;" d="M330.571,246.904l-31.366,7.393c-0.029-0.578-0.077-1.091-0.142-1.521l31.177-7.346
					C330.347,245.919,330.459,246.408,330.571,246.904z"/>
				<path style="opacity:0.25;" d="M332.717,256.826l-33.506,7.9c0-0.519,0.006-1.038,0.012-1.562l33.188-7.824
					C332.51,255.842,332.611,256.337,332.717,256.826z"/>
				<path style="opacity:0.25;" d="M334.486,266.832l-34.054,8.024c-0.13-0.142-0.236-0.283-0.313-0.419
					c-0.141-0.254-0.259-0.578-0.366-0.973l34.514-8.136C334.35,265.853,334.421,266.36,334.486,266.832z"/>
			</g>
			<path style="opacity:0.25;" d="M320.489,212.667c-1.61,4.487-5.141,10.76-12.369,11.037c-8.637,0.336-10.188-4.717-10.442-7.11
				c0.648-0.519,1.279-0.996,1.863-1.421c0.472-0.348,0.914-0.66,1.321-0.937l0.041-0.024l2.659-1.515
				c3.007-0.501,5.813-0.696,8.342-0.708C315.359,211.971,318.29,212.301,320.489,212.667z"/>
			<g>
				
					<linearGradient id="SVGID_00000145043956207911472690000012724357402729621922_" gradientUnits="userSpaceOnUse" x1="301.3633" y1="201.1646" x2="298.1417" y2="218.0308">
					<stop  offset="0" style="stop-color:#F78B7C"/>
					<stop  offset="1" style="stop-color:#FFB7A9"/>
				</linearGradient>
				<path style="fill:url(#SVGID_00000145043956207911472690000012724357402729621922_);" d="M308.119,219.093
					c-0.684,0.654-1.539,1.038-2.535,0.861c-1.851-0.324-3.007-1.586-3.655-2.594c-0.407-0.631-0.619-1.167-0.678-1.332
					c-0.012-0.03-0.018-0.047-0.018-0.047s-0.431,0.242-1.503,0.053c-0.053-0.006-0.106-0.018-0.159-0.029
					c-0.035-0.006-0.053-0.012-0.053-0.012c-0.814-0.165-1.958-0.572-3.502-1.439c-2.276-1.279-4.086-3.225-5.454-5.123
					c-0.301-0.419-0.584-0.837-0.843-1.244c-0.295-0.46-0.56-0.908-0.796-1.332c5.182-0.519,8.596-4.204,10.123-8.602
					c0,0,2.842,4.675,3.473,4.675c0.631,0,1.138-4.422,3.03-4.481c0.324-0.012,0.595,0.065,0.825,0.212
					c1.103,0.702,1.091,3.095,0.189,5.595c-0.572,1.58,1.769,2.907,2.276,3.036c0.03,0.006,0.071-0.018,0.13-0.077
					c0.13,1.663,0.419,3.484,0.684,4.835c0.142,0.713,0.277,1.297,0.383,1.651C310.36,214.807,309.652,217.637,308.119,219.093z"/>
				<path style="fill:#FFB7A9;" d="M294.553,201.553c-0.1,0.218-1.769,3.602-5.707,5.171c-0.165-0.295-0.313-0.578-0.448-0.843
					C291.641,204.371,294.382,201.718,294.553,201.553z"/>
			</g>
			
				<linearGradient id="SVGID_00000023985543692094999100000002416579124519996302_" gradientUnits="userSpaceOnUse" x1="295.3627" y1="186.9932" x2="298.7738" y2="205.3755">
				<stop  offset="0" style="stop-color:#2B2B2B"/>
				<stop  offset="1" style="stop-color:#111111"/>
			</linearGradient>
			<path style="fill:url(#SVGID_00000023985543692094999100000002416579124519996302_);" d="M312.742,196.995
				c-0.802,5-3.125,9.587-3.773,10.217c-0.059,0.059-0.1,0.083-0.13,0.077c-0.507-0.13-2.848-1.456-2.276-3.036
				c1.085-3.013,0.884-5.872-1.014-5.807c-1.893,0.059-2.4,4.481-3.03,4.481c-0.631,0-3.473-4.675-3.473-4.675
				c-1.527,4.398-4.941,8.083-10.123,8.602c-0.183,0.024-0.365,0.035-0.554,0.047c0.165-0.059,0.324-0.118,0.478-0.177
				c3.938-1.568,5.607-4.952,5.707-5.171c-0.171,0.165-2.913,2.818-6.155,4.328c-1.574,0.725-3.26,1.185-4.829,0.967
				c-0.118-0.153-0.236-0.313-0.336-0.478c-4.557-6.786-1.279-20.942,5.106-23.654c0,0-1.657-0.478-3.65-1.946
				c2.842,0.619,10.094-1.893,12.605-1.563c2.506,0.33,3.314,2.323,3.314,2.323s3.172-2.859,6.774-1.657
				c-1.769-0.065-3.095,2.081-3.095,2.081s6.763,1.515,8.402,8.655C313.154,192.627,313.089,194.849,312.742,196.995z"/>
			<path style="opacity:0.25;" d="M308.119,219.093c-0.684,0.654-1.539,1.038-2.535,0.861c-1.851-0.324-3.007-1.586-3.655-2.594
				c-0.407-0.631-0.619-1.167-0.678-1.332c1.244-0.289,2.907-1.315,4.186-4.493v-0.006c0-0.006,0.006-0.006,0.006-0.012
				C306.628,212.389,306.427,217.719,308.119,219.093z"/>
			<g>
				<path style="opacity:0.25;" d="M288.846,206.724c-0.165-0.295-0.313-0.578-0.448-0.843c3.243-1.509,5.984-4.162,6.155-4.328
					C294.453,201.771,292.784,205.155,288.846,206.724z"/>
				<path style="opacity:0.25;" d="M306.374,198.658c-3.002,0.985-1.76,5.823-3.381,6.071c-2.022,0.318-2.998-2.686-2.998-2.686
					s-1.268,2.529-5.118,4.681c-1.71,0.955-3.591,1.333-5.159,1.462c-0.295-0.46-0.56-0.908-0.796-1.332
					c5.182-0.519,8.596-4.204,10.123-8.602c0,0,2.842,4.675,3.473,4.675c0.631,0,1.138-4.422,3.03-4.481
					C305.873,198.434,306.144,198.511,306.374,198.658z"/>
			</g>
			<path style="opacity:0.25;fill:#FFFFFF;" d="M305.437,211.535c-1.279,3.178-2.942,4.204-4.186,4.493
				c-0.012-0.03-0.018-0.047-0.018-0.047s-0.472,0.265-1.663,0.024c-0.035-0.006-0.053-0.012-0.053-0.012
				c-0.814-0.165-1.958-0.572-3.502-1.439c-2.276-1.279-4.086-3.225-5.454-5.123c0.383-0.041,0.926,0.077,1.616,0.619
				c1.562,1.232,2.983,4.074,6.538,4.835C302.247,215.644,304.529,212.867,305.437,211.535z"/>
			<path style="opacity:0.25;" d="M305.571,200.496c0,0-0.608,1.769-0.336,2.337C305.508,203.402,307.435,201.665,305.571,200.496z"
				/>
			<path style="opacity:0.25;" d="M312.742,196.995c-0.802,5-3.125,9.587-3.773,10.217c-0.059,0.059-0.1,0.083-0.13,0.077
				c-0.507-0.13-2.848-1.456-2.276-3.036c1.085-3.013,0.884-5.872-1.014-5.807c-1.893,0.059-2.4,4.481-3.03,4.481
				c-0.631,0-3.473-4.675-3.473-4.675c-1.527,4.398-4.941,8.083-10.123,8.602c-0.183,0.024-0.365,0.035-0.554,0.047
				c0.165-0.059,0.324-0.118,0.478-0.177c3.938-1.568,5.607-4.952,5.707-5.171c-0.171,0.165-2.913,2.818-6.155,4.328
				c-1.574,0.725-3.26,1.185-4.829,0.967c-0.118-0.153-0.236-0.313-0.336-0.478c3.514-2.358,12.269-8.897,12.116-15.412
				c1.704,3.219,1.327,7.293,1.327,7.293s1.604-4.263,1.321-7.865c2.565,3.602,3.254,6.733,3.254,6.733s0.348-3.602,4.516-4.269
				c4.174-0.66,4.345,5.401,4.345,5.401s1.439-2.176-0.171-6.061C311.032,192.827,311.981,194.737,312.742,196.995z"/>
			<path style="fill:#0049B2;" d="M307.004,222.069c-5.149,0.653-6.773-4.208-7.275-6.036c1.073,0.189,1.503-0.053,1.503-0.053
				s0.006,0.018,0.018,0.047c0.059,0.165,0.271,0.702,0.678,1.332c0.648,1.008,1.804,2.27,3.655,2.594
				c0.996,0.177,1.851-0.206,2.535-0.861c1.533-1.456,2.24-4.286,1.916-5.395c-0.106-0.354-0.242-0.937-0.383-1.651
				c0.772-0.035,1.527-0.053,2.252-0.059C312.099,216.01,311.489,221.5,307.004,222.069z"/>
			<path style="opacity:0.25;" d="M299.276,258.99c0.029-2.836-0.006-5.306-0.295-6.662c-0.159-0.749-0.507-1.94-0.985-3.431
				c0,0-2.14,0.159-4.982-0.755c0.454-1.639,0.404-4.85,0.486-8.859c0.035-1.615-0.127-4.029-0.486-5.485
				c1.916,4.328,4.451,9.245,5.342,13.708C299.311,252.31,299.641,256.585,299.276,258.99z"/>
			<path style="opacity:0.25;" d="M334.609,271.654c-8.62,5.247-16.715,6.757-22.911,6.562c7.364-3.084,5.206-10.506-1.586-11.868
				c6.833-5.053,12.338-9.536,11.232-25.895c-0.565-8.357,0.631-15.288,0.631-15.288l4.05,2.677
				C326.314,228.986,336.231,268.418,334.609,271.654z"/>
			
				<linearGradient id="SVGID_00000095301638274950711050000004820995560217904554_" gradientUnits="userSpaceOnUse" x1="337.4963" y1="248.2019" x2="323.5986" y2="223.6914">
				<stop  offset="0" style="stop-color:#3E84FF"/>
				<stop  offset="1" style="stop-color:#7440FF"/>
			</linearGradient>
			<path style="fill:url(#SVGID_00000095301638274950711050000004820995560217904554_);" d="M334.786,233.379
				c-0.018,0.141-0.059,0.277-0.124,0.419c-0.366,0.796-1.492,1.586-2.883,2.311c-2.453,1.268-5.731,2.311-7.175,2.742
				c-0.46,0.136-0.731,0.212-0.731,0.212s-4.092-8.124-4.823-15.205c-0.466-4.499,0.424-8.579,4.587-9.899
				c0.383-0.118,0.802-0.218,1.244-0.289c0,0,5.731,3.184,9.722,18.961C334.662,232.878,334.727,233.125,334.786,233.379z"/>
			
				<linearGradient id="SVGID_00000107577521546634549440000006265663105178279040_" gradientUnits="userSpaceOnUse" x1="333.0475" y1="218.8456" x2="311.4436" y2="271.9079">
				<stop  offset="0" style="stop-color:#F78B7C"/>
				<stop  offset="1" style="stop-color:#FFB7A9"/>
			</linearGradient>
			<path style="fill:url(#SVGID_00000107577521546634549440000006265663105178279040_);" d="M338.524,254.727
				c-1.639,3.16-27.793,15.919-27.793,15.919s-2.022,3.791-5.684,4.546c-3.667,0.761-6.444-1.262-8.59-1.385
				c-2.152-0.13-5.182,2.146-5.182,2.146s-0.371,0.023-0.684-0.136c-0.389-0.201-0.684-0.696-0.03-1.887
				c2.824-5.053,13.219-5.937,13.979-6.314c0.36-0.177,5.613-4.381,11.043-8.755c6.055-4.87,12.328-9.958,12.328-9.958l-2.506-7.611
				l-0.802-2.441c2.264-0.672,9.044-2.854,10.058-5.053c0.259,0.879,0.637,2.164,1.055,3.673
				C337.339,243.331,339.632,252.605,338.524,254.727z"/>
			<path style="opacity:0.25;" d="M335.718,237.47c-3.367,3.154-7.959,3.744-10.312,3.82l-0.802-2.441
				c2.264-0.672,9.044-2.854,10.058-5.053C334.922,234.676,335.299,235.961,335.718,237.47z"/>
			<path style="opacity:0.25;" d="M298.945,252.174c-0.489,1.928-1.144,4.322-1.869,6.639c-3.219-2.022-7.087-6.934-9.156-9.758
				l0.696-3.083c4.705,3.266,9.38,2.924,9.38,2.924C298.444,250.288,298.774,251.42,298.945,252.174z"/>
			<path style="fill:#A2A5AA;" d="M345.597,376.409l-14.114,1.197c-1.298,0.11-2.44-0.853-2.55-2.151l-0.028-0.334
				c-0.11-1.298,0.853-2.44,2.152-2.55l14.114-1.197c1.298-0.11,2.44,0.853,2.55,2.152l0.028,0.334
				C347.858,375.157,346.895,376.299,345.597,376.409z"/>
			<path style="fill:#A2A5AA;" d="M301.652,375.733c-0.295,1.132-1.321,1.881-2.447,1.881c-0.142,0-0.277-0.012-0.419-0.035
				c-0.077-0.012-0.147-0.029-0.224-0.047l-13.366-3.52l-0.69-0.183c-1.35-0.36-2.152-1.739-1.798-3.089
				c0.301-1.132,1.321-1.887,2.441-1.887c0.212,0,0.43,0.029,0.648,0.088l14.056,3.703
				C301.204,373.004,302.005,374.383,301.652,375.733z"/>
			<g>
				
					<linearGradient id="SVGID_00000142869088098018646030000017806990553182113189_" gradientUnits="userSpaceOnUse" x1="285.4266" y1="396.0031" x2="284.5861" y2="375.8289">
					<stop  offset="0" style="stop-color:#3E84FF"/>
					<stop  offset="1" style="stop-color:#7440FF"/>
				</linearGradient>
				<path style="fill:url(#SVGID_00000142869088098018646030000017806990553182113189_);" d="M299.995,392.69l-24.763-1.391
					c0,0-9.858-0.124-1.268-5.177c1.515-0.89,2.859-1.887,4.056-2.918c3.891-3.378,6.155-7.187,7.175-9.191l4.864,1.279l8.502,2.24
					c0.077,0.018,0.147,0.035,0.224,0.047C299.399,382.626,299.995,392.69,299.995,392.69z"/>
				<path style="fill:#010D19;" d="M267.018,395.09c0,0,0.502-8.209,6.947-8.968c6.445-0.76,7.184,5.509,7.184,5.509l18.846-1.057
					l0.503,4.516H267.018z"/>
				<path style="fill:#010D19;" d="M290.06,375.291c-0.755,2.458-2.871,8.036-6.869,9.693c-1.94-1.551-3.927-1.816-5.171-1.781
					c3.891-3.378,6.155-7.187,7.175-9.191L290.06,375.291z"/>
			</g>
			<path style="opacity:0.25;" d="M334.786,233.379c-0.018,0.141-0.059,0.277-0.124,0.419c-0.366,0.796-1.492,1.586-2.883,2.311
				c-0.029-2.877-0.354-6.981-1.615-11.072c-1.627-5.265-4.799-9.209-6.527-11.078c0.383-0.118,0.802-0.218,1.244-0.289
				c0,0,5.731,3.184,9.722,18.961C334.662,232.878,334.727,233.125,334.786,233.379z"/>
			
				<path style="opacity:0.25;fill:none;stroke:#FFFFFF;stroke-width:1.1792;stroke-linecap:round;stroke-linejoin:round;stroke-miterlimit:10;" d="
				M328.608,278.233c0,0-0.379,5.49,5.117,6.627"/>
			
				<line style="opacity:0.25;fill:none;stroke:#FFFFFF;stroke-width:1.1792;stroke-linecap:round;stroke-linejoin:round;stroke-miterlimit:10;" x1="331.164" y1="287.07" x2="341.937" y2="368.853"/>
			
				<line style="opacity:0.25;fill:none;stroke:#FFFFFF;stroke-width:1.1792;stroke-linecap:round;stroke-linejoin:round;stroke-miterlimit:10;" x1="314.495" y1="299.452" x2="296.218" y2="368.853"/>
			<path style="opacity:0.25;" d="M317.122,300.461c-1.893,4.434-5.707,20.435-9.268,36.377c-0.106-8.331,0.071-17.292,0.985-23.996
				C311.108,296.11,317.122,300.461,317.122,300.461z"/>
			<path style="opacity:0.25;" d="M336.272,278.222c-24.285,12.122-35.34-2.671-35.823-3.343c1.374,1.504,5.495,3.154,11.249,3.337
				c6.197,0.194,14.292-1.315,22.911-6.562c0.201-0.401,0.224-1.356,0.112-2.73C335.01,269.207,335.564,272.692,336.272,278.222z"/>
			<path style="opacity:0.25;fill:#FFFFFF;" d="M315.583,258.86c-1.014,3.903-9.298,10.164-10.76,10.064
				c-1.657-0.112-9.38,1.863-11.809,3.284c-1.898,1.108-2.329,2.883-2.423,3.608c-0.389-0.201-0.684-0.696-0.03-1.887
				c2.824-5.053,13.219-5.937,13.979-6.314C304.9,267.439,310.153,263.235,315.583,258.86z"/>
		</g>
		<g>
			
				<linearGradient id="SVGID_00000057868988220668978990000005525067699315699133_" gradientUnits="userSpaceOnUse" x1="143.4545" y1="248.1159" x2="143.8749" y2="319.9866">
				<stop  offset="0" style="stop-color:#6D5BD8"/>
				<stop  offset="1" style="stop-color:#C7CFFF"/>
			</linearGradient>
			<path style="fill:url(#SVGID_00000057868988220668978990000005525067699315699133_);" d="M160.17,288.425l-1.93-1.354
				l-1.93-1.356c-0.293,0.417-7.263,10.437-14.299,28.993c-6.467,17.057-14.177,44.849-14.177,80.382h4.717
				C132.551,328.617,159.894,288.819,160.17,288.425z"/>
			
				<linearGradient id="SVGID_00000107582063087121179160000003582576816442740409_" gradientUnits="userSpaceOnUse" x1="216.3514" y1="253.9241" x2="173.061" y2="372.4475">
				<stop  offset="0" style="stop-color:#6D5BD8"/>
				<stop  offset="1" style="stop-color:#C7CFFF"/>
			</linearGradient>
			<path style="fill:url(#SVGID_00000107582063087121179160000003582576816442740409_);" d="M202.367,288.425l-1.93-1.354
				l-1.93-1.356c-0.293,0.417-7.263,10.437-14.299,28.993c-6.467,17.057-14.177,44.849-14.177,80.382h4.717
				C174.748,328.617,202.091,288.819,202.367,288.425z"/>
			
				<linearGradient id="SVGID_00000023281732751011989730000011349845849221003150_" gradientUnits="userSpaceOnUse" x1="324.9268" y1="270.7733" x2="366.1158" y2="367.8618">
				<stop  offset="0" style="stop-color:#6D5BD8"/>
				<stop  offset="1" style="stop-color:#C7CFFF"/>
			</linearGradient>
			<path style="fill:url(#SVGID_00000023281732751011989730000011349845849221003150_);" d="M337.647,288.425l1.931-1.354
				l1.93-1.356c0.293,0.417,7.263,10.437,14.299,28.993c6.467,17.057,14.177,44.849,14.177,80.382h-4.717
				C365.267,328.617,337.923,288.819,337.647,288.425z"/>
			
				<linearGradient id="SVGID_00000073689688059845020060000012580026869116901265_" gradientUnits="userSpaceOnUse" x1="311.0668" y1="247.1358" x2="311.4871" y2="319.0064">
				<stop  offset="0" style="stop-color:#6D5BD8"/>
				<stop  offset="1" style="stop-color:#C7CFFF"/>
			</linearGradient>
			<path style="fill:url(#SVGID_00000073689688059845020060000012580026869116901265_);" d="M295.45,288.425l1.93-1.354l1.93-1.356
				c0.293,0.417,7.263,10.437,14.299,28.993c6.467,17.057,14.177,44.849,14.177,80.382h-4.717
				C323.069,328.617,295.726,288.819,295.45,288.425z"/>
			<g>
				<path style="fill:#9CACF2;" d="M341.938,286.099c0,0.861-0.348,1.639-0.914,2.205c-0.566,0.566-1.344,0.914-2.205,0.914H127.247
					c-1.721,0-3.119-1.397-3.119-3.119c0-0.861,0.348-1.639,0.914-2.205c0.566-0.566,1.344-0.914,2.205-0.914h211.572
					C340.54,282.98,341.938,284.378,341.938,286.099z"/>
				<path style="fill:#C7CFFF;" d="M379.353,286.099c0,0.861-0.348,1.639-0.914,2.205c-0.566,0.566-1.344,0.914-2.205,0.914h-37.415
					c0.861,0,1.639-0.348,2.205-0.914c0.566-0.566,0.914-1.344,0.914-2.205c0-1.722-1.397-3.119-3.119-3.119h37.415
					C377.955,282.98,379.353,284.378,379.353,286.099z"/>
			</g>
		</g>
		<g>
			<path style="fill:#EEF8FF;" d="M200.438,191.559v68.474h-49.36c-3.909,0-7.075-3.166-7.075-7.075v-54.324
				c0-3.909,3.166-7.075,7.075-7.075H200.438z"/>
			<path style="fill:#C7CFFF;" d="M200.437,260.034L200.437,260.034v-68.476l0,0c-3.907,0-7.075,3.168-7.075,7.075v54.326
				C193.362,256.866,196.53,260.034,200.437,260.034z"/>
			<path style="opacity:0.25;" d="M175.87,260.034h-17.316l4.286-26.561c0,0,2.034-3.933,6.485-1.386
				C172.946,234.163,171.248,252.074,175.87,260.034z"/>
			<path style="fill:#9CACF2;" d="M151.417,274.856l11.421-41.385c0.417-1.512,2.413-1.885,3.319-0.604
				c1.714,2.424,3.619,6.555,3.073,12.564c-0.947,10.435-7.012,30.387-7.012,30.387L151.417,274.856z"/>
			<path style="fill:#7189E2;" d="M171.722,273.773h-23.104c-2.542,0-4.604,2.061-4.604,4.604l0,0c0,2.543,2.061,4.604,4.604,4.604
				h23.104c2.543,0,4.604-2.061,4.604-4.604l0,0C176.326,275.834,174.265,273.773,171.722,273.773z"/>
			
				<linearGradient id="SVGID_00000086687632236438809670000003030269341182597793_" gradientUnits="userSpaceOnUse" x1="167.6912" y1="252.0428" x2="163.907" y2="197.1719">
				<stop  offset="0" style="stop-color:#3E84FF"/>
				<stop  offset="1" style="stop-color:#7440FF"/>
			</linearGradient>
			<path style="fill:url(#SVGID_00000086687632236438809670000003030269341182597793_);" d="M169.326,219.858
				c0,3.279-1.726,5.938-3.855,5.938s-3.855-2.658-3.855-5.938s1.726-5.938,3.855-5.938S169.326,216.578,169.326,219.858z"/>
		</g>
		<g>
			<polygon style="fill:#9CACF2;" points="313.495,279.743 283.695,278.219 283.695,282.979 313.495,282.979 			"/>
			<path style="fill:#C7CFFF;" d="M290.015,282.979H232.56c-0.674,0-1.26-0.461-1.418-1.115l-9.058-37.336
				c-0.223-0.919,0.473-1.804,1.418-1.804h57.455c0.673,0,1.26,0.461,1.418,1.115l9.058,37.336
				C291.656,282.094,290.96,282.979,290.015,282.979z"/>
			<path style="fill:#EEF8FF;" d="M288.156,281.223h-57.455c-0.672,0-1.262-0.46-1.421-1.114l-9.056-37.338
				c-0.118-0.477,0.018-0.943,0.307-1.285c0.259-0.313,0.66-0.519,1.114-0.519H279.1c0.672,0,1.256,0.46,1.415,1.114l9.056,37.338
				C289.795,280.339,289.099,281.223,288.156,281.223z"/>
			
				<linearGradient id="SVGID_00000022532189465122605200000007222705955675912880_" gradientUnits="userSpaceOnUse" x1="264.2957" y1="297.6489" x2="246.3631" y2="236.566">
				<stop  offset="0" style="stop-color:#3E84FF"/>
				<stop  offset="1" style="stop-color:#7440FF"/>
			</linearGradient>
			<path style="fill:url(#SVGID_00000022532189465122605200000007222705955675912880_);" d="M257.036,261.719
				c0.754,1.969,0.041,4.071-1.591,4.696c-1.633,0.625-3.567-0.464-4.321-2.432s-0.041-4.071,1.591-4.696
				C254.348,258.661,256.282,259.75,257.036,261.719z"/>
		</g>
		<g>
			
				<radialGradient id="SVGID_00000030468975753232432360000014019733895949186440_" cx="352.7123" cy="142.8044" r="45.3286" gradientTransform="matrix(0.9183 -0.3959 0.3472 0.8053 -7.4037 208.5785)" gradientUnits="userSpaceOnUse">
				<stop  offset="0" style="stop-color:#3E84FF"/>
				<stop  offset="0.3286" style="stop-color:#5469FF;stop-opacity:0.6714"/>
				<stop  offset="0.7569" style="stop-color:#6B4BFF;stop-opacity:0.2431"/>
				<stop  offset="1" style="stop-color:#7440FF;stop-opacity:0"/>
			</radialGradient>
			<path style="fill:url(#SVGID_00000030468975753232432360000014019733895949186440_);" d="M416.323,162.279
				c10.67,24.752-3.18,54.517-30.934,66.481c-27.755,11.964-58.904,1.598-69.574-23.154c-10.67-24.752,3.18-54.516,30.934-66.481
				S405.653,137.527,416.323,162.279z"/>
			
				<linearGradient id="SVGID_00000058560091152308169010000001702677578128958137_" gradientUnits="userSpaceOnUse" x1="338.709" y1="124.0474" x2="378.1269" y2="224.1082">
				<stop  offset="0" style="stop-color:#3E84FF"/>
				<stop  offset="1" style="stop-color:#7440FF"/>
			</linearGradient>
			<path style="fill:url(#SVGID_00000058560091152308169010000001702677578128958137_);" d="M398.66,155.365v43.382
				c0,2.317-1.881,4.198-4.198,4.198H324.72c-2.317,0-4.198-1.881-4.198-4.198v-43.382c0-2.317,1.881-4.198,4.198-4.198h69.742
				C396.779,151.168,398.66,153.048,398.66,155.365z"/>
			<g>
				<g>
					<path style="fill:#EEF8FF;" d="M344.302,193.605c-2.318,0-4.205-1.886-4.205-4.204v-7.523c0-0.562-0.219-1.089-0.616-1.486
						l-1.509-1.509c-1.006-1.006-1.006-2.643,0-3.649l1.509-1.509c0.397-0.397,0.616-0.925,0.616-1.486v-7.523
						c0-2.318,1.886-4.204,4.205-4.204v2.102c-1.159,0-2.102,0.943-2.102,2.102v7.523c0,1.123-0.437,2.179-1.232,2.973l-1.509,1.509
						c-0.186,0.186-0.186,0.49,0.001,0.676l1.508,1.509c0.794,0.794,1.232,1.85,1.232,2.973v7.523c0,1.159,0.943,2.102,2.102,2.102
						V193.605z"/>
				</g>
				<g>
					<path style="fill:#EEF8FF;" d="M374.884,160.509c2.318,0,4.205,1.886,4.205,4.204v7.523c0,0.561,0.219,1.089,0.616,1.486
						l1.509,1.509c1.006,1.006,1.006,2.643,0,3.649l-1.509,1.509c-0.397,0.397-0.616,0.925-0.616,1.486v7.523
						c0,2.318-1.886,4.204-4.205,4.204v-2.102c1.159,0,2.102-0.943,2.102-2.102v-7.523c0-1.123,0.437-2.179,1.232-2.973l1.509-1.509
						c0.186-0.186,0.186-0.49,0-0.676l-1.509-1.509c-0.794-0.794-1.232-1.85-1.232-2.973v-7.523c0-1.159-0.943-2.102-2.102-2.102
						V160.509z"/>
				</g>
				<path style="fill:#EEF8FF;" d="M369.21,170.817c-1.771-1.771-4.641-1.771-6.412,0l-3.206,3.206l-3.206-3.206
					c-1.771-1.771-4.641-1.771-6.412,0c-1.771,1.771-1.771,4.641,0,6.412l3.206,3.206l6.412,6.412l6.412-6.412l3.206-3.206
					C370.981,175.458,370.981,172.588,369.21,170.817z"/>
			</g>
		</g>
		<g>
			<path style="fill:#B3CEE8;" d="M309.45,154.915v-2.023c0-0.767-0.622-1.389-1.389-1.389h-3.306
				c-0.261-1.105-0.698-2.14-1.28-3.079l2.341-2.341c0.542-0.542,0.542-1.422,0-1.964l-1.431-1.431
				c-0.542-0.542-1.422-0.542-1.964,0l-2.341,2.341c-0.939-0.582-1.974-1.019-3.079-1.28v-3.306c0-0.767-0.622-1.389-1.389-1.389
				h-2.023c-0.767,0-1.389,0.622-1.389,1.389v3.306c-1.105,0.261-2.14,0.698-3.079,1.28l-2.341-2.341
				c-0.542-0.542-1.422-0.542-1.964,0l-1.431,1.431c-0.542,0.542-0.542,1.422,0,1.964l2.341,2.341
				c-0.582,0.939-1.019,1.974-1.28,3.079h-3.306c-0.767,0-1.389,0.622-1.389,1.389v2.023c0,0.767,0.622,1.389,1.389,1.389h3.306
				c0.261,1.105,0.698,2.14,1.28,3.079l-2.341,2.341c-0.542,0.542-0.542,1.422,0,1.964l1.431,1.431c0.542,0.542,1.422,0.542,1.964,0
				l2.341-2.341c0.939,0.582,1.974,1.019,3.079,1.28v3.306c0,0.767,0.622,1.389,1.389,1.389h2.023c0.767,0,1.389-0.622,1.389-1.389
				v-3.306c1.105-0.261,2.14-0.698,3.079-1.28l2.341,2.341c0.542,0.542,1.422,0.542,1.964,0l1.431-1.431
				c0.542-0.542,0.542-1.422,0-1.964l-2.341-2.341c0.582-0.939,1.019-1.974,1.28-3.079h3.306
				C308.828,156.304,309.45,155.682,309.45,154.915z M295.573,159.55c-3.914,0.647-7.266-2.704-6.619-6.618
				c0.392-2.371,2.304-4.283,4.675-4.676c3.914-0.647,7.265,2.704,6.619,6.618C299.856,157.245,297.944,159.158,295.573,159.55z"/>
			<g>
				<path style="fill:#EEF8FF;" d="M265.798,202.102L265.798,202.102c-0.765,0-1.383-0.587-1.467-1.347
					c-0.673-6.149-5.9-10.952-12.225-10.952c-5.236,0-9.722,3.296-11.491,7.918l2.871,0.601l-3.626,2.665l-1.515,1.114h-0.277
					l-1.091-1.881l-2.152-3.708l2.877,0.601c2.07-5.967,7.741-10.259,14.404-10.259c7.846,0,14.326,5.956,15.157,13.585
					C267.359,201.324,266.687,202.102,265.798,202.102z"/>
				<path style="fill:#EEF8FF;" d="M238.168,206.174L238.168,206.174c0.765,0,1.383,0.587,1.467,1.347
					c0.673,6.149,5.9,10.952,12.225,10.952c5.236,0,9.722-3.296,11.491-7.918l-2.871-0.601l3.626-2.665l1.515-1.114h0.277
					l1.091,1.881l2.152,3.708l-2.877-0.601c-2.069,5.967-7.741,10.259-14.404,10.259c-7.846,0-14.326-5.956-15.157-13.585
					C236.608,206.952,237.28,206.174,238.168,206.174z"/>
				<polygon style="fill:#EEF8FF;" points="238.345,202.102 238.151,202.244 238.068,202.102 				"/>
			</g>
		</g>
		<path style="opacity:0.28;" d="M381.959,404.163c-0.218,4.652-4.227,8.237-8.891,8.237H127.1c-4.923,0-8.879-4.104-8.649-9.074
			c0.112-2.323,1.173-4.387,2.783-5.861c1.61-1.48,3.779-2.376,6.108-2.376h245.974
			C378.232,395.089,382.194,399.193,381.959,404.163z"/>
		<g>
			
				<linearGradient id="SVGID_00000005225497454648981040000006770169424358899373_" gradientUnits="userSpaceOnUse" x1="373.4096" y1="221.4206" x2="425.7841" y2="221.4206">
				<stop  offset="0" style="stop-color:#3E84FF"/>
				<stop  offset="1" style="stop-color:#7440FF"/>
			</linearGradient>
			
				<line style="fill:none;stroke:url(#SVGID_00000005225497454648981040000006770169424358899373_);stroke-width:2.9479;stroke-linecap:round;stroke-linejoin:round;stroke-miterlimit:10;" x1="374.884" y1="221.421" x2="424.31" y2="221.421"/>
			
				<line style="fill:none;stroke:#FFFFFF;stroke-width:2.9479;stroke-linecap:round;stroke-linejoin:round;stroke-miterlimit:10;" x1="374.884" y1="230.221" x2="406.875" y2="230.221"/>
			
				<line style="fill:none;stroke:#FFFFFF;stroke-width:2.9479;stroke-linecap:round;stroke-linejoin:round;stroke-miterlimit:10;" x1="374.884" y1="238.833" x2="406.875" y2="238.833"/>
			
				<radialGradient id="SVGID_00000062173140449827028040000002469429468099538103_" cx="374.8835" cy="230.2214" r="8.8144" gradientUnits="userSpaceOnUse">
				<stop  offset="0" style="stop-color:#FFFFFF"/>
				<stop  offset="1" style="stop-color:#000000"/>
			</radialGradient>
			<circle style="fill:url(#SVGID_00000062173140449827028040000002469429468099538103_);" cx="374.884" cy="230.221" r="8.814"/>
		</g>
		<g>
			
				<line style="fill:none;stroke:#FFFFFF;stroke-width:2.9479;stroke-linecap:round;stroke-linejoin:round;stroke-miterlimit:10;" x1="118.32" y1="269.671" x2="68.893" y2="269.671"/>
			
				<linearGradient id="SVGID_00000151504282960747455080000000193963596514709890_" gradientUnits="userSpaceOnUse" x1="84.8542" y1="278.4715" x2="119.7939" y2="278.4715">
				<stop  offset="0" style="stop-color:#3E84FF"/>
				<stop  offset="1" style="stop-color:#7440FF"/>
			</linearGradient>
			
				<line style="fill:none;stroke:url(#SVGID_00000151504282960747455080000000193963596514709890_);stroke-width:2.9479;stroke-linecap:round;stroke-linejoin:round;stroke-miterlimit:10;" x1="118.32" y1="278.471" x2="86.328" y2="278.471"/>
			
				<linearGradient id="SVGID_00000140716745114623642890000003765431787288794272_" gradientUnits="userSpaceOnUse" x1="84.8542" y1="287.0825" x2="119.7939" y2="287.0825">
				<stop  offset="0" style="stop-color:#3E84FF"/>
				<stop  offset="1" style="stop-color:#7440FF"/>
			</linearGradient>
			
				<line style="fill:none;stroke:url(#SVGID_00000140716745114623642890000003765431787288794272_);stroke-width:2.9479;stroke-linecap:round;stroke-linejoin:round;stroke-miterlimit:10;" x1="118.32" y1="287.082" x2="86.328" y2="287.082"/>
			
				<radialGradient id="SVGID_00000024715818586117266980000007941527204627942579_" cx="118.6335" cy="269.5142" r="8.8144" gradientUnits="userSpaceOnUse">
				<stop  offset="0" style="stop-color:#FFFFFF"/>
				<stop  offset="1" style="stop-color:#000000"/>
			</radialGradient>
			<circle style="fill:url(#SVGID_00000024715818586117266980000007941527204627942579_);" cx="118.633" cy="269.514" r="8.814"/>
		</g>
		
			<radialGradient id="SVGID_00000150081609894056412600000015741834849889809070_" cx="182.6865" cy="391.363" r="232.6777" gradientUnits="userSpaceOnUse">
			<stop  offset="0" style="stop-color:#FF00FF"/>
			<stop  offset="1" style="stop-color:#00FFFF;stop-opacity:0"/>
		</radialGradient>
		<path style="fill:url(#SVGID_00000150081609894056412600000015741834849889809070_);" d="M289.571,279.419l-9.056-37.338
			c-0.159-0.654-0.743-1.114-1.415-1.114h-57.455c-0.454,0-0.855,0.206-1.114,0.519l-0.348-0.195l10.577-57.313
			c0,0,82.975-41.186,99.401,8.086c1.027,3.079,28.423,42.76,28.925,45.481C366.617,278.357,289.571,279.419,289.571,279.419z"/>
		<g>
			
				<path style="fill:none;stroke:#66D7FF;stroke-width:1.1792;stroke-linecap:round;stroke-linejoin:round;stroke-miterlimit:10;" d="
				M154.197,249.863c0,0-15.64,83.053,51.546,92.038c51.016,6.822,106.757-34.08,92.852-61.303"/>
			
				<path style="fill:none;stroke:#0098FF;stroke-width:1.1792;stroke-linecap:round;stroke-linejoin:round;stroke-miterlimit:10;" d="
				M178.328,248.189c0,0-21.225,37.617,0,90.68c21.225,53.062,149.902,67.919,126.357-57.323"/>
			
				<radialGradient id="SVGID_00000173146198354837815600000009545465830892722071_" cx="278.4305" cy="322.4656" r="8.8144" gradientUnits="userSpaceOnUse">
				<stop  offset="0" style="stop-color:#FFFFFF"/>
				<stop  offset="1" style="stop-color:#000000"/>
			</radialGradient>
			<circle style="fill:url(#SVGID_00000173146198354837815600000009545465830892722071_);" cx="278.43" cy="322.466" r="8.814"/>
			
				<radialGradient id="SVGID_00000099660276079405163140000010100804171802649506_" cx="208.8416" cy="368.8529" r="8.8144" gradientUnits="userSpaceOnUse">
				<stop  offset="0" style="stop-color:#FFFFFF"/>
				<stop  offset="1" style="stop-color:#000000"/>
			</radialGradient>
			<circle style="fill:url(#SVGID_00000099660276079405163140000010100804171802649506_);" cx="208.842" cy="368.853" r="8.814"/>
		</g>
		<g>
			
				<linearGradient id="SVGID_00000129919190287807013940000016159106468777957028_" gradientUnits="userSpaceOnUse" x1="446.7101" y1="235.0287" x2="427.3802" y2="313.8644">
				<stop  offset="0" style="stop-color:#3E84FF"/>
				<stop  offset="1" style="stop-color:#7440FF"/>
			</linearGradient>
			<path style="fill:url(#SVGID_00000129919190287807013940000016159106468777957028_);" d="M439.303,293.149
				c-5.495,14.274-12.599,27.881-20.918,40.41c1.344-9.758,10.695-73.928,27.51-94.793
				C448.017,252.32,443.972,274.306,439.303,293.149z"/>
			<path style="fill:#B3CEE8;" d="M422.924,326.419c-1.468,2.411-2.983,4.793-4.54,7.14c-2.423,3.65-4.952,7.211-7.576,10.665
				c-0.053-0.867-2.936-48.257,12.087-72.796C428.195,289.547,425.33,313.089,422.924,326.419z"/>
			<g style="opacity:0.25;">
				<path d="M445.895,238.766c-3.502,13.006-6.803,26.066-9.815,39.189c-1.508,6.561-2.947,13.138-4.228,19.743
					c-1.275,6.603-2.475,13.23-3.231,19.894l-1.171-0.138c0.861-6.711,2.161-13.332,3.536-19.932
					c1.38-6.599,2.916-13.16,4.521-19.703C438.712,264.732,442.203,251.719,445.895,238.766z"/>
			</g>
			<g style="opacity:0.25;">
				<path d="M422.895,271.429c-0.908,5.128-1.662,10.282-2.334,15.444c-0.658,5.164-1.244,10.337-1.648,15.524
					c-0.394,5.186-0.731,10.38-0.75,15.575c-0.024,5.191,0.135,10.388,0.806,15.512l-1.17,0.15
					c-0.584-5.223-0.643-10.46-0.521-15.679c0.117-5.222,0.554-10.423,1.047-15.612c0.503-5.189,1.188-10.357,1.944-15.511
					C421.039,281.679,421.89,276.539,422.895,271.429z"/>
			</g>
		</g>
		<g>
			<path style="fill:#B3CEE8;" d="M97.301,356.132c0,0-23.386-14.257-32.167-41.971c24.452,3.115,46.258,43.303,46.258,43.303
				L97.301,356.132z"/>
			<g style="opacity:0.25;">
				<path d="M65.134,314.16c6.627,6.008,13.096,12.191,19.426,18.518c6.309,6.347,12.48,12.844,18.223,19.745l-0.918,0.741
					c-5.551-6.977-11.567-13.599-17.727-20.074C77.956,326.634,71.626,320.312,65.134,314.16z"/>
			</g>
			
				<linearGradient id="SVGID_00000106862340369613995070000012368761939065421440_" gradientUnits="userSpaceOnUse" x1="56.8244" y1="345.9001" x2="101.9275" y2="388.3502">
				<stop  offset="0" style="stop-color:#3E84FF"/>
				<stop  offset="1" style="stop-color:#7440FF"/>
			</linearGradient>
			<path style="fill:url(#SVGID_00000106862340369613995070000012368761939065421440_);" d="M124.253,379.499
				c-0.413,0.153-0.867,0.194-1.344,0.141c-5.177-4.463-10.925-9.929-16.791-16.432c-28.854-16.497-56.848,18.265-56.848,18.265
				s11.662-40.552,44.331-33.712h0.006C126.282,354.601,124.253,379.499,124.253,379.499z"/>
			<g style="opacity:0.25;">
				<path d="M49.27,381.474c3.99-6.324,8.834-12.125,14.405-17.138c5.584-4.941,12.146-9.114,19.575-10.688
					c3.691-0.782,7.548-0.845,11.266-0.125c3.714,0.725,7.298,2.133,10.525,4.106c0.829,0.456,1.576,1.041,2.369,1.556l1.172,0.798
					l1.099,0.892c0.729,0.6,1.474,1.177,2.191,1.798l1.042,0.984l0.975,1.054c1.258,1.444,2.324,3.066,3.12,4.821
					c0.796,1.765,1.362,3.596,1.479,5.627l-1.179-0.003c-0.075-1.708-0.58-3.533-1.308-5.172c-0.727-1.661-1.714-3.212-2.895-4.603
					l-0.917-1.018l-0.985-0.954c-0.687-0.612-1.415-1.19-2.121-1.788l-1.067-0.89l-1.137-0.794
					c-0.768-0.513-1.493-1.098-2.297-1.553c-3.13-1.97-6.601-3.385-10.209-4.139c-3.613-0.749-7.375-0.739-11.006-0.02
					c-7.306,1.444-13.876,5.483-19.499,10.332C58.257,369.476,53.342,375.204,49.27,381.474z"/>
			</g>
		</g>
	</g>
</g>
<g id="DESIGNED_BY_FREEPIK">
	<g>
		<g id="XMLID_319_">
			<g id="XMLID_338_">
				<path id="XMLID_346_" style="fill:#F9FBFC;" d="M260.104,465.465c-0.432,0.443-0.803,0.931-1.108,1.453l-0.465-0.241
					c-0.067-0.298-0.349-0.503-0.659-0.466c-0.331,0.039-0.568,0.339-0.529,0.67c0.039,0.331,0.339,0.568,0.67,0.529
					c0.066-0.008,0.127-0.026,0.184-0.052l0.451,0.234c-0.251,0.554-0.433,1.139-0.539,1.744l0.747,0.132
					c0.23-1.306,0.85-2.507,1.792-3.473L260.104,465.465z"/>
				<path id="XMLID_345_" style="fill:#F9FBFC;" d="M265.592,463.163c-0.171,0-0.341,0.006-0.51,0.017l-0.074-0.626
					c0.188-0.149,0.296-0.389,0.266-0.645c-0.046-0.393-0.402-0.674-0.795-0.628c-0.393,0.046-0.674,0.402-0.628,0.795
					c0.03,0.254,0.189,0.461,0.404,0.564l0.074,0.624c-0.714,0.116-1.403,0.332-2.06,0.646l0.327,0.684
					c0.934-0.447,1.942-0.673,2.995-0.673c0.496,0,0.993,0.053,1.475,0.158l0.161-0.741
					C266.692,463.222,266.142,463.163,265.592,463.163z"/>
				<path id="XMLID_344_" style="fill:#F9FBFC;" d="M272.194,465.711c0.331-0.04,0.566-0.341,0.526-0.672
					c-0.04-0.331-0.341-0.566-0.672-0.526c-0.309,0.038-0.535,0.304-0.53,0.609l-0.416,0.363c-0.418-0.43-0.889-0.813-1.408-1.139
					l-0.404,0.641c1.134,0.715,2.021,1.726,2.563,2.925l0.69-0.313c-0.251-0.554-0.567-1.072-0.942-1.545l0.402-0.351
					C272.065,465.716,272.129,465.719,272.194,465.711z"/>
				<path id="XMLID_343_" style="fill:#F9FBFC;" d="M265.044,473.372c-0.386,0.023-0.775,0.035-1.157,0.035
					c-0.88,0-1.733-0.061-2.478-0.179c-0.39-0.062-0.846-0.155-1.27-0.292c1.046,1.861,3.069,3.125,5.388,3.125
					c2.855,0,5.262-1.916,5.95-4.504c-0.682,0.449-1.505,0.825-2.459,1.123C267.839,473.047,266.463,473.286,265.044,473.372z"/>
				<path id="XMLID_339_" style="fill:#F9FBFC;" d="M265.592,464.68c-3.352,0-6.08,2.666-6.08,5.943
					c0,0.426,0.046,0.849,0.137,1.261c0.673,0.483,2.706,0.89,5.348,0.731c2.879-0.173,5.297-0.957,6.672-2.159
					c-0.006-0.195-0.021-0.39-0.045-0.582C271.244,466.913,268.65,464.68,265.592,464.68z M263.432,471.194
					c-1.02,0-1.85-0.83-1.85-1.85c0-1.02,0.83-1.85,1.85-1.85c1.02,0,1.85,0.83,1.85,1.85
					C265.282,470.365,264.452,471.194,263.432,471.194z M268.17,470.286c-0.75,0-1.36-0.61-1.36-1.36s0.61-1.361,1.36-1.361
					c0.75,0,1.361,0.61,1.361,1.361S268.92,470.286,268.17,470.286z"/>
			</g>
			<path id="XMLID_336_" style="fill:#F9FBFC;" d="M281.595,466.547c-0.295-0.116-0.805-0.309-1.382-0.237
				c-0.551,0.069-0.844,0.341-0.844,1.007v0.866h2.228v1.717h-2.228v5.455h-1.932v-5.455h-1.34v-1.717h1.34v-0.888
				c0-1.68,0.896-2.783,2.568-2.783c0.643,0,1.157,0.122,1.59,0.308L281.595,466.547z"/>
			<path id="XMLID_334_" style="fill:#F9FBFC;" d="M286.298,469.879c-0.177-0.03-0.358-0.046-0.526-0.046
				c-0.896,0-1.51,0.548-1.51,1.614v3.908h-1.932v-7.172h1.873v0.785c0.451-0.673,1.14-0.977,2.021-0.977
				c0.414,0,0.848,0.128,1.094,0.337L286.298,469.879z"/>
			<path id="XMLID_331_" style="fill:#F9FBFC;" d="M293.965,471.757c0,0.222-0.015,0.489-0.037,0.651h-5.085
				c0.207,1.036,0.933,1.488,1.843,1.488c0.622,0,1.295-0.252,1.813-0.688l1.133,1.243c-0.814,0.748-1.85,1.088-3.057,1.088
				c-2.198,0-3.723-1.495-3.723-3.753c0-2.258,1.48-3.797,3.627-3.797C292.544,467.99,293.958,469.522,293.965,471.757z
				 M288.851,471.091h3.175c-0.177-0.918-0.733-1.436-1.562-1.436C289.554,469.655,289.021,470.203,288.851,471.091z"/>
			<path id="XMLID_328_" style="fill:#F9FBFC;" d="M301.618,471.757c0,0.222-0.015,0.489-0.037,0.651h-5.085
				c0.207,1.036,0.932,1.488,1.843,1.488c0.622,0,1.295-0.252,1.814-0.688l1.132,1.243c-0.814,0.748-1.85,1.088-3.057,1.088
				c-2.198,0-3.723-1.495-3.723-3.753c0-2.258,1.48-3.797,3.627-3.797C300.197,467.99,301.611,469.522,301.618,471.757z
				 M296.504,471.091h3.175c-0.178-0.918-0.733-1.436-1.562-1.436C297.207,469.655,296.674,470.203,296.504,471.091z"/>
			<path id="XMLID_325_" style="fill:#F9FBFC;" d="M309.964,471.764c0,2.154-1.495,3.775-3.471,3.775
				c-0.962,0-1.643-0.378-2.109-0.933v3.708h-1.924v-10.133h1.887v0.792c0.466-0.585,1.155-0.984,2.139-0.984
				C308.469,467.99,309.964,469.61,309.964,471.764z M304.287,471.764c0,1.132,0.747,1.976,1.843,1.976
				c1.14,0,1.85-0.881,1.85-1.976c0-1.095-0.71-1.976-1.85-1.976C305.035,469.788,304.287,470.632,304.287,471.764z"/>
			<path id="XMLID_322_" style="fill:#F9FBFC;" d="M313.068,465.836c0,0.696-0.54,1.229-1.236,1.229
				c-0.696,0-1.229-0.533-1.229-1.229c0-0.696,0.533-1.243,1.229-1.243C312.527,464.592,313.068,465.14,313.068,465.836z
				 M312.809,475.354h-1.932v-7.172h1.932V475.354z"/>
			<path id="XMLID_320_" style="fill:#F9FBFC;" d="M316.032,470.736l2.701-2.554h2.368l-3.479,3.375l3.501,3.797h-2.376
				l-2.716-2.901v2.901H314.1v-10.658h1.932V470.736z"/>
		</g>
		<g>
			<path style="fill:#F9FBFC;" d="M184.412,475.289v-1.055c-0.527,0.718-1.391,1.23-2.388,1.23c-1.846,0-3.149-1.406-3.149-3.706
				c0-2.256,1.289-3.721,3.149-3.721c0.952,0,1.816,0.469,2.388,1.245v-3.765h1.099v9.77H184.412z M184.412,473.37v-3.208
				c-0.395-0.615-1.245-1.143-2.124-1.143c-1.421,0-2.27,1.172-2.27,2.739c0,1.567,0.85,2.724,2.27,2.724
				C183.168,474.483,184.017,473.986,184.412,473.37z"/>
			<path style="fill:#F9FBFC;" d="M186.932,471.744c0-2.051,1.465-3.706,3.486-3.706c2.139,0,3.398,1.67,3.398,3.794v0.279h-5.727
				c0.088,1.333,1.025,2.446,2.549,2.446c0.805,0,1.626-0.322,2.182-0.894l0.527,0.718c-0.703,0.703-1.655,1.084-2.812,1.084
				C188.44,475.465,186.932,473.956,186.932,471.744z M190.403,468.947c-1.509,0-2.256,1.274-2.314,2.358h4.643
				C192.718,470.25,192.015,468.947,190.403,468.947z"/>
			<path style="fill:#F9FBFC;" d="M194.607,474.351l0.571-0.791c0.469,0.542,1.362,1.011,2.329,1.011c1.084,0,1.67-0.513,1.67-1.216
				c0-1.714-4.38-0.659-4.38-3.281c0-1.098,0.952-2.036,2.636-2.036c1.201,0,2.051,0.454,2.622,1.026l-0.513,0.762
				c-0.424-0.513-1.201-0.894-2.109-0.894c-0.967,0-1.567,0.483-1.567,1.113c0,1.552,4.38,0.527,4.38,3.281
				c0,1.187-0.952,2.138-2.783,2.138C196.306,475.465,195.325,475.113,194.607,474.351z"/>
			<path style="fill:#F9FBFC;" d="M201.477,466.471c0-0.41,0.337-0.747,0.732-0.747c0.41,0,0.747,0.337,0.747,0.747
				c0,0.41-0.337,0.732-0.747,0.732C201.814,467.203,201.477,466.881,201.477,466.471z M201.667,475.289v-7.075h1.099v7.075H201.667
				z"/>
			<path style="fill:#F9FBFC;" d="M204.582,477.105l0.556-0.82c0.586,0.703,1.289,0.967,2.3,0.967c1.172,0,2.27-0.571,2.27-2.124
				v-1.011c-0.513,0.718-1.377,1.26-2.373,1.26c-1.845,0-3.149-1.377-3.149-3.662c0-2.27,1.289-3.677,3.149-3.677
				c0.952,0,1.802,0.469,2.373,1.245v-1.069h1.098v6.87c0,2.344-1.641,3.076-3.369,3.076
				C206.237,478.16,205.417,477.926,204.582,477.105z M209.709,473.253v-3.091c-0.381-0.615-1.23-1.143-2.109-1.143
				c-1.421,0-2.27,1.128-2.27,2.695c0,1.553,0.849,2.695,2.27,2.695C208.478,474.41,209.328,473.868,209.709,473.253z"/>
			<path style="fill:#F9FBFC;" d="M217.413,475.289v-4.629c0-1.245-0.63-1.641-1.582-1.641c-0.865,0-1.685,0.527-2.095,1.099v5.17
				h-1.099v-7.075h1.099v1.025c0.498-0.586,1.465-1.201,2.519-1.201c1.48,0,2.256,0.747,2.256,2.285v4.966H217.413z"/>
			<path style="fill:#F9FBFC;" d="M219.932,471.744c0-2.051,1.465-3.706,3.486-3.706c2.139,0,3.398,1.67,3.398,3.794v0.279h-5.727
				c0.088,1.333,1.025,2.446,2.549,2.446c0.806,0,1.626-0.322,2.183-0.894l0.527,0.718c-0.703,0.703-1.655,1.084-2.812,1.084
				C221.441,475.465,219.932,473.956,219.932,471.744z M223.404,468.947c-1.509,0-2.256,1.274-2.314,2.358h4.643
				C225.718,470.25,225.015,468.947,223.404,468.947z"/>
			<path style="fill:#F9FBFC;" d="M233.35,475.289v-1.055c-0.527,0.718-1.392,1.23-2.388,1.23c-1.846,0-3.149-1.406-3.149-3.706
				c0-2.256,1.289-3.721,3.149-3.721c0.952,0,1.817,0.469,2.388,1.245v-3.765h1.098v9.77H233.35z M233.35,473.37v-3.208
				c-0.396-0.615-1.245-1.143-2.124-1.143c-1.421,0-2.27,1.172-2.27,2.739c0,1.567,0.849,2.724,2.27,2.724
				C232.105,474.483,232.954,473.986,233.35,473.37z"/>
			<path style="fill:#F9FBFC;" d="M239.692,475.289v-9.77h1.098v3.765c0.572-0.776,1.421-1.245,2.388-1.245
				c1.845,0,3.149,1.465,3.149,3.721c0,2.299-1.304,3.706-3.149,3.706c-0.996,0-1.86-0.513-2.388-1.23v1.055H239.692z
				 M242.9,474.483c1.436,0,2.285-1.157,2.285-2.724c0-1.568-0.85-2.739-2.285-2.739c-0.864,0-1.728,0.527-2.109,1.143v3.208
				C241.171,473.986,242.036,474.483,242.9,474.483z"/>
			<path style="fill:#F9FBFC;" d="M247.528,477.061c0.161,0.073,0.425,0.117,0.601,0.117c0.483,0,0.805-0.161,1.055-0.747
				l0.469-1.069l-2.959-7.148h1.187l2.358,5.8l2.344-5.8h1.201l-3.545,8.51c-0.425,1.025-1.143,1.421-2.08,1.435
				c-0.234,0-0.601-0.044-0.805-0.103L247.528,477.061z"/>
		</g>
	</g>
</g>
</svg>
